solid OpenSCAD_Model
  facet normal -1 0 0
    outer loop
      vertex 0 0 0
      vertex 0 9 1
      vertex 0 9 0
    endloop
  endfacet
  facet normal -1 -0 0
    outer loop
      vertex 0 9 1
      vertex 0 0 0
      vertex 0 0 1
    endloop
  endfacet
  facet normal 0 0 1
    outer loop
      vertex 40.7118 6.13615 1
      vertex 43 9 1
      vertex 40.75 6.5 1
    endloop
  endfacet
  facet normal 0 0 1
    outer loop
      vertex 43 9 1
      vertex 40.7118 6.86384 1
      vertex 40.75 6.5 1
    endloop
  endfacet
  facet normal 0 0 1
    outer loop
      vertex 43 9 1
      vertex 40.5987 7.21179 1
      vertex 40.7118 6.86384 1
    endloop
  endfacet
  facet normal 0 0 1
    outer loop
      vertex 43 9 1
      vertex 40.4158 7.52862 1
      vertex 40.5987 7.21179 1
    endloop
  endfacet
  facet normal 0 0 1
    outer loop
      vertex 43 9 1
      vertex 40.171 7.8005 1
      vertex 40.4158 7.52862 1
    endloop
  endfacet
  facet normal 0 0 1
    outer loop
      vertex 43 9 1
      vertex 39.875 8.01554 1
      vertex 40.171 7.8005 1
    endloop
  endfacet
  facet normal 0 0 1
    outer loop
      vertex 43 9 1
      vertex 39.5408 8.16435 1
      vertex 39.875 8.01554 1
    endloop
  endfacet
  facet normal 0 0 1
    outer loop
      vertex 43 9 1
      vertex 39.1829 8.24041 1
      vertex 39.5408 8.16435 1
    endloop
  endfacet
  facet normal 0 0 1
    outer loop
      vertex 43 9 1
      vertex 38.8171 8.24041 1
      vertex 39.1829 8.24041 1
    endloop
  endfacet
  facet normal 0 0 1
    outer loop
      vertex 31.5122 6.11853 1
      vertex 37.25 6.5 1
      vertex 37.2882 6.86384 1
    endloop
  endfacet
  facet normal 0 0 1
    outer loop
      vertex 31.2248 6.61641 1
      vertex 37.2882 6.86384 1
      vertex 37.4013 7.21179 1
    endloop
  endfacet
  facet normal 0 0 1
    outer loop
      vertex 31.2248 6.61641 1
      vertex 37.4013 7.21179 1
      vertex 37.5842 7.52862 1
    endloop
  endfacet
  facet normal 0 0 1
    outer loop
      vertex 30.8401 7.04365 1
      vertex 37.5842 7.52862 1
      vertex 37.829 7.8005 1
    endloop
  endfacet
  facet normal 0 0 1
    outer loop
      vertex 30.375 7.38157 1
      vertex 37.829 7.8005 1
      vertex 38.125 8.01554 1
    endloop
  endfacet
  facet normal 0 0 1
    outer loop
      vertex 37.25 6.5 1
      vertex 31.6899 5.57176 1
      vertex 31.75 5 1
    endloop
  endfacet
  facet normal 0 0 1
    outer loop
      vertex 29.8498 7.61541 1
      vertex 38.125 8.01554 1
      vertex 38.4592 8.16435 1
    endloop
  endfacet
  facet normal 0 0 1
    outer loop
      vertex 37.25 6.5 1
      vertex 31.5122 6.11853 1
      vertex 31.6899 5.57176 1
    endloop
  endfacet
  facet normal 0 0 1
    outer loop
      vertex 37.2882 6.86384 1
      vertex 31.2248 6.61641 1
      vertex 31.5122 6.11853 1
    endloop
  endfacet
  facet normal 0 0 1
    outer loop
      vertex 37.5842 7.52862 1
      vertex 30.8401 7.04365 1
      vertex 31.2248 6.61641 1
    endloop
  endfacet
  facet normal 0 0 1
    outer loop
      vertex 29.2875 7.73493 1
      vertex 38.4592 8.16435 1
      vertex 38.8171 8.24041 1
    endloop
  endfacet
  facet normal 0 0 1
    outer loop
      vertex 29.2875 7.73493 1
      vertex 38.8171 8.24041 1
      vertex 43 9 1
    endloop
  endfacet
  facet normal 0 0 1
    outer loop
      vertex 37.829 7.8005 1
      vertex 30.375 7.38157 1
      vertex 30.8401 7.04365 1
    endloop
  endfacet
  facet normal 0 0 1
    outer loop
      vertex 38.125 8.01554 1
      vertex 29.8498 7.61541 1
      vertex 30.375 7.38157 1
    endloop
  endfacet
  facet normal 0 0 1
    outer loop
      vertex 38.4592 8.16435 1
      vertex 29.2875 7.73493 1
      vertex 29.8498 7.61541 1
    endloop
  endfacet
  facet normal 0 0 1
    outer loop
      vertex 43 9 1
      vertex 28.7125 7.73493 1
      vertex 29.2875 7.73493 1
    endloop
  endfacet
  facet normal 0 0 1
    outer loop
      vertex 26.3101 5.57176 1
      vertex 23.75 5 1
      vertex 26.25 5 1
    endloop
  endfacet
  facet normal 0 0 1
    outer loop
      vertex 23.6899 5.57176 1
      vertex 26.3101 5.57176 1
      vertex 26.4877 6.11853 1
    endloop
  endfacet
  facet normal 0 0 1
    outer loop
      vertex 23.5122 6.11853 1
      vertex 26.4877 6.11853 1
      vertex 26.7752 6.61641 1
    endloop
  endfacet
  facet normal 0 0 1
    outer loop
      vertex 23.2248 6.61641 1
      vertex 26.7752 6.61641 1
      vertex 27.1599 7.04365 1
    endloop
  endfacet
  facet normal 0 0 1
    outer loop
      vertex 22.8401 7.04365 1
      vertex 27.1599 7.04365 1
      vertex 27.625 7.38157 1
    endloop
  endfacet
  facet normal 0 0 1
    outer loop
      vertex 26.3101 5.57176 1
      vertex 23.6899 5.57176 1
      vertex 23.75 5 1
    endloop
  endfacet
  facet normal 0 0 1
    outer loop
      vertex 26.4877 6.11853 1
      vertex 23.5122 6.11853 1
      vertex 23.6899 5.57176 1
    endloop
  endfacet
  facet normal 0 0 1
    outer loop
      vertex 22.375 7.38157 1
      vertex 27.625 7.38157 1
      vertex 28.1502 7.61541 1
    endloop
  endfacet
  facet normal 0 0 1
    outer loop
      vertex 26.7752 6.61641 1
      vertex 23.2248 6.61641 1
      vertex 23.5122 6.11853 1
    endloop
  endfacet
  facet normal 0 0 1
    outer loop
      vertex 21.8498 7.61541 1
      vertex 28.1502 7.61541 1
      vertex 28.7125 7.73493 1
    endloop
  endfacet
  facet normal 0 0 1
    outer loop
      vertex 27.1599 7.04365 1
      vertex 22.8401 7.04365 1
      vertex 23.2248 6.61641 1
    endloop
  endfacet
  facet normal 0 0 1
    outer loop
      vertex 27.625 7.38157 1
      vertex 22.375 7.38157 1
      vertex 22.8401 7.04365 1
    endloop
  endfacet
  facet normal 0 0 1
    outer loop
      vertex 21.2875 7.73493 1
      vertex 28.7125 7.73493 1
      vertex 43 9 1
    endloop
  endfacet
  facet normal 0 0 1
    outer loop
      vertex 28.1502 7.61541 1
      vertex 21.8498 7.61541 1
      vertex 22.375 7.38157 1
    endloop
  endfacet
  facet normal 0 0 1
    outer loop
      vertex 28.7125 7.73493 1
      vertex 21.2875 7.73493 1
      vertex 21.8498 7.61541 1
    endloop
  endfacet
  facet normal 0 0 1
    outer loop
      vertex 43 9 1
      vertex 20.7125 7.73493 1
      vertex 21.2875 7.73493 1
    endloop
  endfacet
  facet normal 0 0 1
    outer loop
      vertex 18.3101 5.57176 1
      vertex 16.75 5 1
      vertex 18.25 5 1
    endloop
  endfacet
  facet normal 0 0 1
    outer loop
      vertex 16.6899 5.57176 1
      vertex 18.3101 5.57176 1
      vertex 18.4877 6.11853 1
    endloop
  endfacet
  facet normal 0 0 1
    outer loop
      vertex 16.5122 6.11853 1
      vertex 18.4877 6.11853 1
      vertex 18.7752 6.61641 1
    endloop
  endfacet
  facet normal 0 0 1
    outer loop
      vertex 16.2248 6.61641 1
      vertex 18.7752 6.61641 1
      vertex 19.1599 7.04365 1
    endloop
  endfacet
  facet normal 0 0 1
    outer loop
      vertex 18.3101 5.57176 1
      vertex 16.6899 5.57176 1
      vertex 16.75 5 1
    endloop
  endfacet
  facet normal 0 0 1
    outer loop
      vertex 15.8401 7.04365 1
      vertex 19.1599 7.04365 1
      vertex 19.625 7.38157 1
    endloop
  endfacet
  facet normal 0 0 1
    outer loop
      vertex 18.4877 6.11853 1
      vertex 16.5122 6.11853 1
      vertex 16.6899 5.57176 1
    endloop
  endfacet
  facet normal 0 0 1
    outer loop
      vertex 15.375 7.38157 1
      vertex 19.625 7.38157 1
      vertex 20.1502 7.61541 1
    endloop
  endfacet
  facet normal 0 0 1
    outer loop
      vertex 18.7752 6.61641 1
      vertex 16.2248 6.61641 1
      vertex 16.5122 6.11853 1
    endloop
  endfacet
  facet normal 0 0 1
    outer loop
      vertex 19.1599 7.04365 1
      vertex 15.8401 7.04365 1
      vertex 16.2248 6.61641 1
    endloop
  endfacet
  facet normal 0 0 1
    outer loop
      vertex 14.8498 7.61541 1
      vertex 20.1502 7.61541 1
      vertex 20.7125 7.73493 1
    endloop
  endfacet
  facet normal 0 0 1
    outer loop
      vertex 19.625 7.38157 1
      vertex 15.375 7.38157 1
      vertex 15.8401 7.04365 1
    endloop
  endfacet
  facet normal 0 0 1
    outer loop
      vertex 20.1502 7.61541 1
      vertex 14.8498 7.61541 1
      vertex 15.375 7.38157 1
    endloop
  endfacet
  facet normal -0 0 1
    outer loop
      vertex 0 9 1
      vertex 20.7125 7.73493 1
      vertex 43 9 1
    endloop
  endfacet
  facet normal 0 0 1
    outer loop
      vertex 20.7125 7.73493 1
      vertex 14.2875 7.73493 1
      vertex 14.8498 7.61541 1
    endloop
  endfacet
  facet normal 0 0 1
    outer loop
      vertex 20.7125 7.73493 1
      vertex 0 9 1
      vertex 14.2875 7.73493 1
    endloop
  endfacet
  facet normal 0 0 1
    outer loop
      vertex 11.3101 5.57176 1
      vertex 8.75 5 1
      vertex 11.25 5 1
    endloop
  endfacet
  facet normal 0 0 1
    outer loop
      vertex 8.68991 5.57176 1
      vertex 11.3101 5.57176 1
      vertex 11.4877 6.11853 1
    endloop
  endfacet
  facet normal 0 0 1
    outer loop
      vertex 8.51225 6.11853 1
      vertex 11.4877 6.11853 1
      vertex 11.7752 6.61641 1
    endloop
  endfacet
  facet normal 0 0 1
    outer loop
      vertex 8.2248 6.61641 1
      vertex 11.7752 6.61641 1
      vertex 12.1599 7.04365 1
    endloop
  endfacet
  facet normal 0 0 1
    outer loop
      vertex 7.84011 7.04365 1
      vertex 12.1599 7.04365 1
      vertex 12.625 7.38157 1
    endloop
  endfacet
  facet normal 0 0 1
    outer loop
      vertex 11.3101 5.57176 1
      vertex 8.68991 5.57176 1
      vertex 8.75 5 1
    endloop
  endfacet
  facet normal 0 0 1
    outer loop
      vertex 11.4877 6.11853 1
      vertex 8.51225 6.11853 1
      vertex 8.68991 5.57176 1
    endloop
  endfacet
  facet normal 0 0 1
    outer loop
      vertex 7.375 7.38157 1
      vertex 12.625 7.38157 1
      vertex 13.1502 7.61541 1
    endloop
  endfacet
  facet normal 0 0 1
    outer loop
      vertex 11.7752 6.61641 1
      vertex 8.2248 6.61641 1
      vertex 8.51225 6.11853 1
    endloop
  endfacet
  facet normal 0 0 1
    outer loop
      vertex 6.8498 7.61541 1
      vertex 13.1502 7.61541 1
      vertex 13.7125 7.73493 1
    endloop
  endfacet
  facet normal 0 0 1
    outer loop
      vertex 12.1599 7.04365 1
      vertex 7.84011 7.04365 1
      vertex 8.2248 6.61641 1
    endloop
  endfacet
  facet normal 0 0 1
    outer loop
      vertex 12.625 7.38157 1
      vertex 7.375 7.38157 1
      vertex 7.84011 7.04365 1
    endloop
  endfacet
  facet normal 0 0 1
    outer loop
      vertex 13.1502 7.61541 1
      vertex 6.8498 7.61541 1
      vertex 7.375 7.38157 1
    endloop
  endfacet
  facet normal 0 0 1
    outer loop
      vertex 14.2875 7.73493 1
      vertex 0 9 1
      vertex 13.7125 7.73493 1
    endloop
  endfacet
  facet normal 0 0 1
    outer loop
      vertex 13.7125 7.73493 1
      vertex 6.28745 7.73493 1
      vertex 6.8498 7.61541 1
    endloop
  endfacet
  facet normal 0 0 1
    outer loop
      vertex 13.7125 7.73493 1
      vertex 0 9 1
      vertex 6.28745 7.73493 1
    endloop
  endfacet
  facet normal 0 0 1
    outer loop
      vertex 3.31009 5.57176 1
      vertex 0 9 1
      vertex 3.25 5 1
    endloop
  endfacet
  facet normal 0 0 1
    outer loop
      vertex 3.48775 6.11853 1
      vertex 0 9 1
      vertex 3.31009 5.57176 1
    endloop
  endfacet
  facet normal 0 0 1
    outer loop
      vertex 3.7752 6.61641 1
      vertex 0 9 1
      vertex 3.48775 6.11853 1
    endloop
  endfacet
  facet normal 0 0 1
    outer loop
      vertex 4.15989 7.04365 1
      vertex 0 9 1
      vertex 3.7752 6.61641 1
    endloop
  endfacet
  facet normal 0 0 1
    outer loop
      vertex 4.625 7.38157 1
      vertex 0 9 1
      vertex 4.15989 7.04365 1
    endloop
  endfacet
  facet normal 0 0 1
    outer loop
      vertex 5.1502 7.61541 1
      vertex 0 9 1
      vertex 4.625 7.38157 1
    endloop
  endfacet
  facet normal 0 0 1
    outer loop
      vertex 5.71255 7.73493 1
      vertex 0 9 1
      vertex 5.1502 7.61541 1
    endloop
  endfacet
  facet normal 0 0 1
    outer loop
      vertex 6.28745 7.73493 1
      vertex 0 9 1
      vertex 5.71255 7.73493 1
    endloop
  endfacet
  facet normal 0 0 1
    outer loop
      vertex 43 9 1
      vertex 40.7118 6.13615 1
      vertex 43 0 1
    endloop
  endfacet
  facet normal -0 0 1
    outer loop
      vertex 40.5987 5.78821 1
      vertex 43 0 1
      vertex 40.7118 6.13615 1
    endloop
  endfacet
  facet normal -0 0 1
    outer loop
      vertex 40.4158 5.47138 1
      vertex 43 0 1
      vertex 40.5987 5.78821 1
    endloop
  endfacet
  facet normal -0 0 1
    outer loop
      vertex 40.171 5.1995 1
      vertex 43 0 1
      vertex 40.4158 5.47138 1
    endloop
  endfacet
  facet normal -0 0 1
    outer loop
      vertex 39.875 4.98446 1
      vertex 43 0 1
      vertex 40.171 5.1995 1
    endloop
  endfacet
  facet normal -0 0 1
    outer loop
      vertex 39.5408 4.83565 1
      vertex 43 0 1
      vertex 39.875 4.98446 1
    endloop
  endfacet
  facet normal -0 0 1
    outer loop
      vertex 39.1829 4.75959 1
      vertex 43 0 1
      vertex 39.5408 4.83565 1
    endloop
  endfacet
  facet normal -0 0 1
    outer loop
      vertex 38.8171 4.75959 1
      vertex 43 0 1
      vertex 39.1829 4.75959 1
    endloop
  endfacet
  facet normal 0 0 1
    outer loop
      vertex 38.4592 4.83565 1
      vertex 43 0 1
      vertex 38.8171 4.75959 1
    endloop
  endfacet
  facet normal 0 0 1
    outer loop
      vertex 31.2248 3.38359 1
      vertex 38.4592 4.83565 1
      vertex 38.125 4.98446 1
    endloop
  endfacet
  facet normal 0 0 1
    outer loop
      vertex 31.5122 3.88147 1
      vertex 38.125 4.98446 1
      vertex 37.829 5.1995 1
    endloop
  endfacet
  facet normal 0 0 1
    outer loop
      vertex 31.75 5 1
      vertex 37.2882 6.13615 1
      vertex 37.25 6.5 1
    endloop
  endfacet
  facet normal 0 0 1
    outer loop
      vertex 31.75 5 1
      vertex 37.4013 5.78821 1
      vertex 37.2882 6.13615 1
    endloop
  endfacet
  facet normal 0 0 1
    outer loop
      vertex 31.6899 4.42824 1
      vertex 37.4013 5.78821 1
      vertex 31.75 5 1
    endloop
  endfacet
  facet normal 0 0 1
    outer loop
      vertex 37.4013 5.78821 1
      vertex 31.6899 4.42824 1
      vertex 37.5842 5.47138 1
    endloop
  endfacet
  facet normal 0 0 1
    outer loop
      vertex 31.5122 3.88147 1
      vertex 37.5842 5.47138 1
      vertex 31.6899 4.42824 1
    endloop
  endfacet
  facet normal 0 0 1
    outer loop
      vertex 37.5842 5.47138 1
      vertex 31.5122 3.88147 1
      vertex 37.829 5.1995 1
    endloop
  endfacet
  facet normal 0 0 1
    outer loop
      vertex 38.125 4.98446 1
      vertex 31.5122 3.88147 1
      vertex 31.2248 3.38359 1
    endloop
  endfacet
  facet normal 0 0 1
    outer loop
      vertex 38.4592 4.83565 1
      vertex 31.2248 3.38359 1
      vertex 30.8401 2.95635 1
    endloop
  endfacet
  facet normal 0 0 1
    outer loop
      vertex 38.4592 4.83565 1
      vertex 30.8401 2.95635 1
      vertex 43 0 1
    endloop
  endfacet
  facet normal -0 0 1
    outer loop
      vertex 30.375 2.61843 1
      vertex 43 0 1
      vertex 30.8401 2.95635 1
    endloop
  endfacet
  facet normal -0 0 1
    outer loop
      vertex 29.8498 2.38459 1
      vertex 43 0 1
      vertex 30.375 2.61843 1
    endloop
  endfacet
  facet normal -0 0 1
    outer loop
      vertex 29.2875 2.26506 1
      vertex 43 0 1
      vertex 29.8498 2.38459 1
    endloop
  endfacet
  facet normal -0 0 1
    outer loop
      vertex 28.7125 2.26506 1
      vertex 43 0 1
      vertex 29.2875 2.26506 1
    endloop
  endfacet
  facet normal -0 0 1
    outer loop
      vertex 23.75 5 1
      vertex 26.3101 4.42824 1
      vertex 26.25 5 1
    endloop
  endfacet
  facet normal 0 0 1
    outer loop
      vertex 23.6899 4.42824 1
      vertex 26.3101 4.42824 1
      vertex 23.75 5 1
    endloop
  endfacet
  facet normal 0 0 1
    outer loop
      vertex 26.3101 4.42824 1
      vertex 23.6899 4.42824 1
      vertex 26.4877 3.88147 1
    endloop
  endfacet
  facet normal 0 0 1
    outer loop
      vertex 23.5122 3.88147 1
      vertex 26.4877 3.88147 1
      vertex 23.6899 4.42824 1
    endloop
  endfacet
  facet normal 0 0 1
    outer loop
      vertex 26.4877 3.88147 1
      vertex 23.5122 3.88147 1
      vertex 26.7752 3.38359 1
    endloop
  endfacet
  facet normal 0 0 1
    outer loop
      vertex 23.2248 3.38359 1
      vertex 26.7752 3.38359 1
      vertex 23.5122 3.88147 1
    endloop
  endfacet
  facet normal 0 0 1
    outer loop
      vertex 26.7752 3.38359 1
      vertex 23.2248 3.38359 1
      vertex 27.1599 2.95635 1
    endloop
  endfacet
  facet normal 0 0 1
    outer loop
      vertex 22.8401 2.95635 1
      vertex 27.1599 2.95635 1
      vertex 23.2248 3.38359 1
    endloop
  endfacet
  facet normal 0 0 1
    outer loop
      vertex 27.1599 2.95635 1
      vertex 22.8401 2.95635 1
      vertex 27.625 2.61843 1
    endloop
  endfacet
  facet normal 0 0 1
    outer loop
      vertex 22.375 2.61843 1
      vertex 27.625 2.61843 1
      vertex 22.8401 2.95635 1
    endloop
  endfacet
  facet normal 0 0 1
    outer loop
      vertex 27.625 2.61843 1
      vertex 22.375 2.61843 1
      vertex 28.1502 2.38459 1
    endloop
  endfacet
  facet normal 0 0 1
    outer loop
      vertex 21.8498 2.38459 1
      vertex 28.1502 2.38459 1
      vertex 22.375 2.61843 1
    endloop
  endfacet
  facet normal 0 0 1
    outer loop
      vertex 28.1502 2.38459 1
      vertex 21.8498 2.38459 1
      vertex 28.7125 2.26506 1
    endloop
  endfacet
  facet normal 0 0 1
    outer loop
      vertex 21.2875 2.26506 1
      vertex 28.7125 2.26506 1
      vertex 21.8498 2.38459 1
    endloop
  endfacet
  facet normal 0 0 1
    outer loop
      vertex 28.7125 2.26506 1
      vertex 21.2875 2.26506 1
      vertex 43 0 1
    endloop
  endfacet
  facet normal -0 0 1
    outer loop
      vertex 20.7125 2.26506 1
      vertex 43 0 1
      vertex 21.2875 2.26506 1
    endloop
  endfacet
  facet normal -0 0 1
    outer loop
      vertex 16.75 5 1
      vertex 18.3101 4.42824 1
      vertex 18.25 5 1
    endloop
  endfacet
  facet normal 0 0 1
    outer loop
      vertex 16.6899 4.42824 1
      vertex 18.3101 4.42824 1
      vertex 16.75 5 1
    endloop
  endfacet
  facet normal 0 0 1
    outer loop
      vertex 18.3101 4.42824 1
      vertex 16.6899 4.42824 1
      vertex 18.4877 3.88147 1
    endloop
  endfacet
  facet normal 0 0 1
    outer loop
      vertex 16.5122 3.88147 1
      vertex 18.4877 3.88147 1
      vertex 16.6899 4.42824 1
    endloop
  endfacet
  facet normal 0 0 1
    outer loop
      vertex 18.4877 3.88147 1
      vertex 16.5122 3.88147 1
      vertex 18.7752 3.38359 1
    endloop
  endfacet
  facet normal 0 0 1
    outer loop
      vertex 16.2248 3.38359 1
      vertex 18.7752 3.38359 1
      vertex 16.5122 3.88147 1
    endloop
  endfacet
  facet normal 0 0 1
    outer loop
      vertex 18.7752 3.38359 1
      vertex 16.2248 3.38359 1
      vertex 19.1599 2.95635 1
    endloop
  endfacet
  facet normal 0 0 1
    outer loop
      vertex 15.8401 2.95635 1
      vertex 19.1599 2.95635 1
      vertex 16.2248 3.38359 1
    endloop
  endfacet
  facet normal 0 0 1
    outer loop
      vertex 19.1599 2.95635 1
      vertex 15.8401 2.95635 1
      vertex 19.625 2.61843 1
    endloop
  endfacet
  facet normal 0 0 1
    outer loop
      vertex 15.375 2.61843 1
      vertex 19.625 2.61843 1
      vertex 15.8401 2.95635 1
    endloop
  endfacet
  facet normal 0 0 1
    outer loop
      vertex 19.625 2.61843 1
      vertex 15.375 2.61843 1
      vertex 20.1502 2.38459 1
    endloop
  endfacet
  facet normal 0 0 1
    outer loop
      vertex 14.8498 2.38459 1
      vertex 20.1502 2.38459 1
      vertex 15.375 2.61843 1
    endloop
  endfacet
  facet normal 0 0 1
    outer loop
      vertex 20.1502 2.38459 1
      vertex 14.8498 2.38459 1
      vertex 20.7125 2.26506 1
    endloop
  endfacet
  facet normal 0 0 1
    outer loop
      vertex 14.2875 2.26506 1
      vertex 20.7125 2.26506 1
      vertex 14.8498 2.38459 1
    endloop
  endfacet
  facet normal 0 0 1
    outer loop
      vertex 0 0 1
      vertex 20.7125 2.26506 1
      vertex 14.2875 2.26506 1
    endloop
  endfacet
  facet normal 0 0 1
    outer loop
      vertex 0 0 1
      vertex 14.2875 2.26506 1
      vertex 13.7125 2.26506 1
    endloop
  endfacet
  facet normal -0 0 1
    outer loop
      vertex 8.75 5 1
      vertex 11.3101 4.42824 1
      vertex 11.25 5 1
    endloop
  endfacet
  facet normal 0 0 1
    outer loop
      vertex 8.68991 4.42824 1
      vertex 11.3101 4.42824 1
      vertex 8.75 5 1
    endloop
  endfacet
  facet normal 0 0 1
    outer loop
      vertex 11.3101 4.42824 1
      vertex 8.68991 4.42824 1
      vertex 11.4877 3.88147 1
    endloop
  endfacet
  facet normal 0 0 1
    outer loop
      vertex 8.51225 3.88147 1
      vertex 11.4877 3.88147 1
      vertex 8.68991 4.42824 1
    endloop
  endfacet
  facet normal 0 0 1
    outer loop
      vertex 11.4877 3.88147 1
      vertex 8.51225 3.88147 1
      vertex 11.7752 3.38359 1
    endloop
  endfacet
  facet normal 0 0 1
    outer loop
      vertex 8.2248 3.38359 1
      vertex 11.7752 3.38359 1
      vertex 8.51225 3.88147 1
    endloop
  endfacet
  facet normal 0 0 1
    outer loop
      vertex 11.7752 3.38359 1
      vertex 8.2248 3.38359 1
      vertex 12.1599 2.95635 1
    endloop
  endfacet
  facet normal 0 0 1
    outer loop
      vertex 7.84011 2.95635 1
      vertex 12.1599 2.95635 1
      vertex 8.2248 3.38359 1
    endloop
  endfacet
  facet normal 0 0 1
    outer loop
      vertex 12.1599 2.95635 1
      vertex 7.84011 2.95635 1
      vertex 12.625 2.61843 1
    endloop
  endfacet
  facet normal 0 0 1
    outer loop
      vertex 7.375 2.61843 1
      vertex 12.625 2.61843 1
      vertex 7.84011 2.95635 1
    endloop
  endfacet
  facet normal 0 0 1
    outer loop
      vertex 12.625 2.61843 1
      vertex 7.375 2.61843 1
      vertex 13.1502 2.38459 1
    endloop
  endfacet
  facet normal 0 0 1
    outer loop
      vertex 6.8498 2.38459 1
      vertex 13.1502 2.38459 1
      vertex 7.375 2.61843 1
    endloop
  endfacet
  facet normal 0 0 1
    outer loop
      vertex 13.1502 2.38459 1
      vertex 6.8498 2.38459 1
      vertex 13.7125 2.26506 1
    endloop
  endfacet
  facet normal 0 0 1
    outer loop
      vertex 6.28745 2.26506 1
      vertex 13.7125 2.26506 1
      vertex 6.8498 2.38459 1
    endloop
  endfacet
  facet normal 0 0 1
    outer loop
      vertex 13.7125 2.26506 1
      vertex 6.28745 2.26506 1
      vertex 0 0 1
    endloop
  endfacet
  facet normal 0 0 1
    outer loop
      vertex 0 0 1
      vertex 6.28745 2.26506 1
      vertex 5.71255 2.26506 1
    endloop
  endfacet
  facet normal 0 0 1
    outer loop
      vertex 0 0 1
      vertex 3.25 5 1
      vertex 0 9 1
    endloop
  endfacet
  facet normal 0 0 1
    outer loop
      vertex 3.25 5 1
      vertex 0 0 1
      vertex 3.31009 4.42824 1
    endloop
  endfacet
  facet normal 0 0 1
    outer loop
      vertex 3.31009 4.42824 1
      vertex 0 0 1
      vertex 3.48775 3.88147 1
    endloop
  endfacet
  facet normal 0 0 1
    outer loop
      vertex 20.7125 2.26506 1
      vertex 0 0 1
      vertex 43 0 1
    endloop
  endfacet
  facet normal 0 0 1
    outer loop
      vertex 5.1502 2.38459 1
      vertex 0 0 1
      vertex 5.71255 2.26506 1
    endloop
  endfacet
  facet normal 0 0 1
    outer loop
      vertex 4.625 2.61843 1
      vertex 0 0 1
      vertex 5.1502 2.38459 1
    endloop
  endfacet
  facet normal 0 0 1
    outer loop
      vertex 4.15989 2.95635 1
      vertex 0 0 1
      vertex 4.625 2.61843 1
    endloop
  endfacet
  facet normal 0 0 1
    outer loop
      vertex 3.7752 3.38359 1
      vertex 0 0 1
      vertex 4.15989 2.95635 1
    endloop
  endfacet
  facet normal 0 0 1
    outer loop
      vertex 3.48775 3.88147 1
      vertex 0 0 1
      vertex 3.7752 3.38359 1
    endloop
  endfacet
  facet normal 1 -0 0
    outer loop
      vertex 43 0 1
      vertex 43 9 0
      vertex 43 9 1
    endloop
  endfacet
  facet normal 1 0 0
    outer loop
      vertex 43 9 0
      vertex 43 0 1
      vertex 43 0 0
    endloop
  endfacet
  facet normal 0 0 -1
    outer loop
      vertex 40.7118 6.13615 0
      vertex 43 9 0
      vertex 43 0 0
    endloop
  endfacet
  facet normal 0 0 -1
    outer loop
      vertex 43 9 0
      vertex 40.7118 6.13615 0
      vertex 40.75 6.5 0
    endloop
  endfacet
  facet normal 0 0 -1
    outer loop
      vertex 43 0 0
      vertex 40.5987 5.78821 0
      vertex 40.7118 6.13615 0
    endloop
  endfacet
  facet normal 0 0 -1
    outer loop
      vertex 43 0 0
      vertex 40.4158 5.47138 0
      vertex 40.5987 5.78821 0
    endloop
  endfacet
  facet normal 0 0 -1
    outer loop
      vertex 43 0 0
      vertex 40.171 5.1995 0
      vertex 40.4158 5.47138 0
    endloop
  endfacet
  facet normal 0 0 -1
    outer loop
      vertex 43 0 0
      vertex 39.875 4.98446 0
      vertex 40.171 5.1995 0
    endloop
  endfacet
  facet normal 0 0 -1
    outer loop
      vertex 43 0 0
      vertex 39.5408 4.83565 0
      vertex 39.875 4.98446 0
    endloop
  endfacet
  facet normal 0 0 -1
    outer loop
      vertex 43 0 0
      vertex 39.1829 4.75959 0
      vertex 39.5408 4.83565 0
    endloop
  endfacet
  facet normal 0 0 -1
    outer loop
      vertex 43 0 0
      vertex 38.8171 4.75959 0
      vertex 39.1829 4.75959 0
    endloop
  endfacet
  facet normal 0 0 -1
    outer loop
      vertex 43 0 0
      vertex 38.4592 4.83565 0
      vertex 38.8171 4.75959 0
    endloop
  endfacet
  facet normal 0 0 -1
    outer loop
      vertex 30.8401 2.95635 0
      vertex 38.4592 4.83565 0
      vertex 43 0 0
    endloop
  endfacet
  facet normal 0 -0 -1
    outer loop
      vertex 31.2248 3.38359 0
      vertex 38.4592 4.83565 0
      vertex 30.8401 2.95635 0
    endloop
  endfacet
  facet normal 0 0 -1
    outer loop
      vertex 31.6899 5.57176 0
      vertex 37.2882 6.13615 0
      vertex 31.75 5 0
    endloop
  endfacet
  facet normal -0 0 -1
    outer loop
      vertex 37.4013 5.78821 0
      vertex 31.75 5 0
      vertex 37.2882 6.13615 0
    endloop
  endfacet
  facet normal 0 0 -1
    outer loop
      vertex 31.6899 4.42824 0
      vertex 37.4013 5.78821 0
      vertex 37.5842 5.47138 0
    endloop
  endfacet
  facet normal 0 0 -1
    outer loop
      vertex 31.5122 3.88147 0
      vertex 37.5842 5.47138 0
      vertex 37.829 5.1995 0
    endloop
  endfacet
  facet normal -0 0 -1
    outer loop
      vertex 38.4592 4.83565 0
      vertex 31.2248 3.38359 0
      vertex 38.125 4.98446 0
    endloop
  endfacet
  facet normal 0 0 -1
    outer loop
      vertex 37.4013 5.78821 0
      vertex 31.6899 4.42824 0
      vertex 31.75 5 0
    endloop
  endfacet
  facet normal 0 0 -1
    outer loop
      vertex 37.5842 5.47138 0
      vertex 31.5122 3.88147 0
      vertex 31.6899 4.42824 0
    endloop
  endfacet
  facet normal -0 0 -1
    outer loop
      vertex 38.125 4.98446 0
      vertex 31.5122 3.88147 0
      vertex 37.829 5.1995 0
    endloop
  endfacet
  facet normal 0 -0 -1
    outer loop
      vertex 31.5122 3.88147 0
      vertex 38.125 4.98446 0
      vertex 31.2248 3.38359 0
    endloop
  endfacet
  facet normal 0 0 -1
    outer loop
      vertex 43 0 0
      vertex 30.375 2.61843 0
      vertex 30.8401 2.95635 0
    endloop
  endfacet
  facet normal 0 0 -1
    outer loop
      vertex 43 0 0
      vertex 29.8498 2.38459 0
      vertex 30.375 2.61843 0
    endloop
  endfacet
  facet normal 0 0 -1
    outer loop
      vertex 43 0 0
      vertex 29.2875 2.26506 0
      vertex 29.8498 2.38459 0
    endloop
  endfacet
  facet normal 0 0 -1
    outer loop
      vertex 43 0 0
      vertex 28.7125 2.26506 0
      vertex 29.2875 2.26506 0
    endloop
  endfacet
  facet normal 0 0 -1
    outer loop
      vertex 26.3101 4.42824 0
      vertex 23.75 5 0
      vertex 26.25 5 0
    endloop
  endfacet
  facet normal 0 0 -1
    outer loop
      vertex 23.6899 4.42824 0
      vertex 26.3101 4.42824 0
      vertex 26.4877 3.88147 0
    endloop
  endfacet
  facet normal 0 0 -1
    outer loop
      vertex 23.5122 3.88147 0
      vertex 26.4877 3.88147 0
      vertex 26.7752 3.38359 0
    endloop
  endfacet
  facet normal 0 0 -1
    outer loop
      vertex 23.2248 3.38359 0
      vertex 26.7752 3.38359 0
      vertex 27.1599 2.95635 0
    endloop
  endfacet
  facet normal 0 0 -1
    outer loop
      vertex 22.8401 2.95635 0
      vertex 27.1599 2.95635 0
      vertex 27.625 2.61843 0
    endloop
  endfacet
  facet normal 0 0 -1
    outer loop
      vertex 26.3101 4.42824 0
      vertex 23.6899 4.42824 0
      vertex 23.75 5 0
    endloop
  endfacet
  facet normal 0 0 -1
    outer loop
      vertex 26.4877 3.88147 0
      vertex 23.5122 3.88147 0
      vertex 23.6899 4.42824 0
    endloop
  endfacet
  facet normal 0 0 -1
    outer loop
      vertex 22.375 2.61843 0
      vertex 27.625 2.61843 0
      vertex 28.1502 2.38459 0
    endloop
  endfacet
  facet normal 0 0 -1
    outer loop
      vertex 26.7752 3.38359 0
      vertex 23.2248 3.38359 0
      vertex 23.5122 3.88147 0
    endloop
  endfacet
  facet normal 0 0 -1
    outer loop
      vertex 21.8498 2.38459 0
      vertex 28.1502 2.38459 0
      vertex 28.7125 2.26506 0
    endloop
  endfacet
  facet normal 0 0 -1
    outer loop
      vertex 27.1599 2.95635 0
      vertex 22.8401 2.95635 0
      vertex 23.2248 3.38359 0
    endloop
  endfacet
  facet normal 0 0 -1
    outer loop
      vertex 21.2875 2.26506 0
      vertex 28.7125 2.26506 0
      vertex 43 0 0
    endloop
  endfacet
  facet normal 0 0 -1
    outer loop
      vertex 27.625 2.61843 0
      vertex 22.375 2.61843 0
      vertex 22.8401 2.95635 0
    endloop
  endfacet
  facet normal 0 0 -1
    outer loop
      vertex 28.1502 2.38459 0
      vertex 21.8498 2.38459 0
      vertex 22.375 2.61843 0
    endloop
  endfacet
  facet normal 0 0 -1
    outer loop
      vertex 28.7125 2.26506 0
      vertex 21.2875 2.26506 0
      vertex 21.8498 2.38459 0
    endloop
  endfacet
  facet normal 0 0 -1
    outer loop
      vertex 43 0 0
      vertex 20.7125 2.26506 0
      vertex 21.2875 2.26506 0
    endloop
  endfacet
  facet normal 0 0 -1
    outer loop
      vertex 18.3101 4.42824 0
      vertex 16.75 5 0
      vertex 18.25 5 0
    endloop
  endfacet
  facet normal 0 0 -1
    outer loop
      vertex 16.6899 4.42824 0
      vertex 18.3101 4.42824 0
      vertex 18.4877 3.88147 0
    endloop
  endfacet
  facet normal 0 0 -1
    outer loop
      vertex 16.5122 3.88147 0
      vertex 18.4877 3.88147 0
      vertex 18.7752 3.38359 0
    endloop
  endfacet
  facet normal 0 0 -1
    outer loop
      vertex 16.2248 3.38359 0
      vertex 18.7752 3.38359 0
      vertex 19.1599 2.95635 0
    endloop
  endfacet
  facet normal 0 0 -1
    outer loop
      vertex 18.3101 4.42824 0
      vertex 16.6899 4.42824 0
      vertex 16.75 5 0
    endloop
  endfacet
  facet normal 0 0 -1
    outer loop
      vertex 15.8401 2.95635 0
      vertex 19.1599 2.95635 0
      vertex 19.625 2.61843 0
    endloop
  endfacet
  facet normal 0 0 -1
    outer loop
      vertex 18.4877 3.88147 0
      vertex 16.5122 3.88147 0
      vertex 16.6899 4.42824 0
    endloop
  endfacet
  facet normal 0 0 -1
    outer loop
      vertex 15.375 2.61843 0
      vertex 19.625 2.61843 0
      vertex 20.1502 2.38459 0
    endloop
  endfacet
  facet normal 0 0 -1
    outer loop
      vertex 18.7752 3.38359 0
      vertex 16.2248 3.38359 0
      vertex 16.5122 3.88147 0
    endloop
  endfacet
  facet normal 0 0 -1
    outer loop
      vertex 19.1599 2.95635 0
      vertex 15.8401 2.95635 0
      vertex 16.2248 3.38359 0
    endloop
  endfacet
  facet normal 0 0 -1
    outer loop
      vertex 14.8498 2.38459 0
      vertex 20.1502 2.38459 0
      vertex 20.7125 2.26506 0
    endloop
  endfacet
  facet normal 0 0 -1
    outer loop
      vertex 19.625 2.61843 0
      vertex 15.375 2.61843 0
      vertex 15.8401 2.95635 0
    endloop
  endfacet
  facet normal 0 0 -1
    outer loop
      vertex 0 0 0
      vertex 20.7125 2.26506 0
      vertex 43 0 0
    endloop
  endfacet
  facet normal 0 0 -1
    outer loop
      vertex 20.1502 2.38459 0
      vertex 14.8498 2.38459 0
      vertex 15.375 2.61843 0
    endloop
  endfacet
  facet normal 0 0 -1
    outer loop
      vertex 20.7125 2.26506 0
      vertex 14.2875 2.26506 0
      vertex 14.8498 2.38459 0
    endloop
  endfacet
  facet normal -0 0 -1
    outer loop
      vertex 20.7125 2.26506 0
      vertex 0 0 0
      vertex 14.2875 2.26506 0
    endloop
  endfacet
  facet normal 0 0 -1
    outer loop
      vertex 11.3101 4.42824 0
      vertex 8.75 5 0
      vertex 11.25 5 0
    endloop
  endfacet
  facet normal 0 0 -1
    outer loop
      vertex 8.68991 4.42824 0
      vertex 11.3101 4.42824 0
      vertex 11.4877 3.88147 0
    endloop
  endfacet
  facet normal 0 0 -1
    outer loop
      vertex 8.51225 3.88147 0
      vertex 11.4877 3.88147 0
      vertex 11.7752 3.38359 0
    endloop
  endfacet
  facet normal 0 0 -1
    outer loop
      vertex 8.2248 3.38359 0
      vertex 11.7752 3.38359 0
      vertex 12.1599 2.95635 0
    endloop
  endfacet
  facet normal 0 0 -1
    outer loop
      vertex 7.84011 2.95635 0
      vertex 12.1599 2.95635 0
      vertex 12.625 2.61843 0
    endloop
  endfacet
  facet normal 0 0 -1
    outer loop
      vertex 11.3101 4.42824 0
      vertex 8.68991 4.42824 0
      vertex 8.75 5 0
    endloop
  endfacet
  facet normal 0 0 -1
    outer loop
      vertex 11.4877 3.88147 0
      vertex 8.51225 3.88147 0
      vertex 8.68991 4.42824 0
    endloop
  endfacet
  facet normal 0 0 -1
    outer loop
      vertex 7.375 2.61843 0
      vertex 12.625 2.61843 0
      vertex 13.1502 2.38459 0
    endloop
  endfacet
  facet normal 0 0 -1
    outer loop
      vertex 11.7752 3.38359 0
      vertex 8.2248 3.38359 0
      vertex 8.51225 3.88147 0
    endloop
  endfacet
  facet normal 0 0 -1
    outer loop
      vertex 6.8498 2.38459 0
      vertex 13.1502 2.38459 0
      vertex 13.7125 2.26506 0
    endloop
  endfacet
  facet normal 0 0 -1
    outer loop
      vertex 12.1599 2.95635 0
      vertex 7.84011 2.95635 0
      vertex 8.2248 3.38359 0
    endloop
  endfacet
  facet normal 0 0 -1
    outer loop
      vertex 12.625 2.61843 0
      vertex 7.375 2.61843 0
      vertex 7.84011 2.95635 0
    endloop
  endfacet
  facet normal -0 0 -1
    outer loop
      vertex 14.2875 2.26506 0
      vertex 0 0 0
      vertex 13.7125 2.26506 0
    endloop
  endfacet
  facet normal 0 0 -1
    outer loop
      vertex 13.1502 2.38459 0
      vertex 6.8498 2.38459 0
      vertex 7.375 2.61843 0
    endloop
  endfacet
  facet normal 0 -0 -1
    outer loop
      vertex 6.28745 2.26506 0
      vertex 13.7125 2.26506 0
      vertex 0 0 0
    endloop
  endfacet
  facet normal 0 0 -1
    outer loop
      vertex 13.7125 2.26506 0
      vertex 6.28745 2.26506 0
      vertex 6.8498 2.38459 0
    endloop
  endfacet
  facet normal -0 0 -1
    outer loop
      vertex 3.31009 4.42824 0
      vertex 0 0 0
      vertex 3.25 5 0
    endloop
  endfacet
  facet normal -0 0 -1
    outer loop
      vertex 3.48775 3.88147 0
      vertex 0 0 0
      vertex 3.31009 4.42824 0
    endloop
  endfacet
  facet normal -0 0 -1
    outer loop
      vertex 3.7752 3.38359 0
      vertex 0 0 0
      vertex 3.48775 3.88147 0
    endloop
  endfacet
  facet normal -0 0 -1
    outer loop
      vertex 4.15989 2.95635 0
      vertex 0 0 0
      vertex 3.7752 3.38359 0
    endloop
  endfacet
  facet normal -0 0 -1
    outer loop
      vertex 4.625 2.61843 0
      vertex 0 0 0
      vertex 4.15989 2.95635 0
    endloop
  endfacet
  facet normal -0 0 -1
    outer loop
      vertex 5.1502 2.38459 0
      vertex 0 0 0
      vertex 4.625 2.61843 0
    endloop
  endfacet
  facet normal -0 0 -1
    outer loop
      vertex 5.71255 2.26506 0
      vertex 0 0 0
      vertex 5.1502 2.38459 0
    endloop
  endfacet
  facet normal -0 0 -1
    outer loop
      vertex 6.28745 2.26506 0
      vertex 0 0 0
      vertex 5.71255 2.26506 0
    endloop
  endfacet
  facet normal 0 0 -1
    outer loop
      vertex 40.7118 6.86384 0
      vertex 43 9 0
      vertex 40.75 6.5 0
    endloop
  endfacet
  facet normal 0 0 -1
    outer loop
      vertex 40.5987 7.21179 0
      vertex 43 9 0
      vertex 40.7118 6.86384 0
    endloop
  endfacet
  facet normal 0 0 -1
    outer loop
      vertex 40.4158 7.52862 0
      vertex 43 9 0
      vertex 40.5987 7.21179 0
    endloop
  endfacet
  facet normal 0 0 -1
    outer loop
      vertex 40.171 7.8005 0
      vertex 43 9 0
      vertex 40.4158 7.52862 0
    endloop
  endfacet
  facet normal 0 0 -1
    outer loop
      vertex 39.875 8.01554 0
      vertex 43 9 0
      vertex 40.171 7.8005 0
    endloop
  endfacet
  facet normal 0 0 -1
    outer loop
      vertex 39.5408 8.16435 0
      vertex 43 9 0
      vertex 39.875 8.01554 0
    endloop
  endfacet
  facet normal 0 0 -1
    outer loop
      vertex 39.1829 8.24041 0
      vertex 43 9 0
      vertex 39.5408 8.16435 0
    endloop
  endfacet
  facet normal 0 0 -1
    outer loop
      vertex 38.8171 8.24041 0
      vertex 43 9 0
      vertex 39.1829 8.24041 0
    endloop
  endfacet
  facet normal -0 0 -1
    outer loop
      vertex 37.2882 6.13615 0
      vertex 31.6899 5.57176 0
      vertex 37.25 6.5 0
    endloop
  endfacet
  facet normal 0 0 -1
    outer loop
      vertex 31.5122 6.11853 0
      vertex 37.25 6.5 0
      vertex 31.6899 5.57176 0
    endloop
  endfacet
  facet normal -0 0 -1
    outer loop
      vertex 37.25 6.5 0
      vertex 31.5122 6.11853 0
      vertex 37.2882 6.86384 0
    endloop
  endfacet
  facet normal 0 0 -1
    outer loop
      vertex 31.2248 6.61641 0
      vertex 37.2882 6.86384 0
      vertex 31.5122 6.11853 0
    endloop
  endfacet
  facet normal -0 0 -1
    outer loop
      vertex 37.2882 6.86384 0
      vertex 31.2248 6.61641 0
      vertex 37.4013 7.21179 0
    endloop
  endfacet
  facet normal -0 0 -1
    outer loop
      vertex 37.4013 7.21179 0
      vertex 31.2248 6.61641 0
      vertex 37.5842 7.52862 0
    endloop
  endfacet
  facet normal 0 0 -1
    outer loop
      vertex 30.8401 7.04365 0
      vertex 37.5842 7.52862 0
      vertex 31.2248 6.61641 0
    endloop
  endfacet
  facet normal -0 0 -1
    outer loop
      vertex 37.5842 7.52862 0
      vertex 30.8401 7.04365 0
      vertex 37.829 7.8005 0
    endloop
  endfacet
  facet normal 0 0 -1
    outer loop
      vertex 30.375 7.38157 0
      vertex 37.829 7.8005 0
      vertex 30.8401 7.04365 0
    endloop
  endfacet
  facet normal -0 0 -1
    outer loop
      vertex 37.829 7.8005 0
      vertex 30.375 7.38157 0
      vertex 38.125 8.01554 0
    endloop
  endfacet
  facet normal 0 0 -1
    outer loop
      vertex 29.8498 7.61541 0
      vertex 38.125 8.01554 0
      vertex 30.375 7.38157 0
    endloop
  endfacet
  facet normal -0 0 -1
    outer loop
      vertex 38.125 8.01554 0
      vertex 29.8498 7.61541 0
      vertex 38.4592 8.16435 0
    endloop
  endfacet
  facet normal 0 0 -1
    outer loop
      vertex 29.2875 7.73493 0
      vertex 38.4592 8.16435 0
      vertex 29.8498 7.61541 0
    endloop
  endfacet
  facet normal -0 0 -1
    outer loop
      vertex 38.4592 8.16435 0
      vertex 29.2875 7.73493 0
      vertex 38.8171 8.24041 0
    endloop
  endfacet
  facet normal -0 0 -1
    outer loop
      vertex 38.8171 8.24041 0
      vertex 29.2875 7.73493 0
      vertex 43 9 0
    endloop
  endfacet
  facet normal 0 0 -1
    outer loop
      vertex 28.7125 7.73493 0
      vertex 43 9 0
      vertex 29.2875 7.73493 0
    endloop
  endfacet
  facet normal 0 0 -1
    outer loop
      vertex 23.75 5 0
      vertex 26.3101 5.57176 0
      vertex 26.25 5 0
    endloop
  endfacet
  facet normal 0 0 -1
    outer loop
      vertex 23.6899 5.57176 0
      vertex 26.3101 5.57176 0
      vertex 23.75 5 0
    endloop
  endfacet
  facet normal 0 0 -1
    outer loop
      vertex 26.3101 5.57176 0
      vertex 23.6899 5.57176 0
      vertex 26.4877 6.11853 0
    endloop
  endfacet
  facet normal 0 0 -1
    outer loop
      vertex 23.5122 6.11853 0
      vertex 26.4877 6.11853 0
      vertex 23.6899 5.57176 0
    endloop
  endfacet
  facet normal 0 0 -1
    outer loop
      vertex 26.4877 6.11853 0
      vertex 23.5122 6.11853 0
      vertex 26.7752 6.61641 0
    endloop
  endfacet
  facet normal 0 0 -1
    outer loop
      vertex 23.2248 6.61641 0
      vertex 26.7752 6.61641 0
      vertex 23.5122 6.11853 0
    endloop
  endfacet
  facet normal 0 0 -1
    outer loop
      vertex 26.7752 6.61641 0
      vertex 23.2248 6.61641 0
      vertex 27.1599 7.04365 0
    endloop
  endfacet
  facet normal 0 0 -1
    outer loop
      vertex 22.8401 7.04365 0
      vertex 27.1599 7.04365 0
      vertex 23.2248 6.61641 0
    endloop
  endfacet
  facet normal 0 0 -1
    outer loop
      vertex 27.1599 7.04365 0
      vertex 22.8401 7.04365 0
      vertex 27.625 7.38157 0
    endloop
  endfacet
  facet normal 0 0 -1
    outer loop
      vertex 22.375 7.38157 0
      vertex 27.625 7.38157 0
      vertex 22.8401 7.04365 0
    endloop
  endfacet
  facet normal 0 0 -1
    outer loop
      vertex 27.625 7.38157 0
      vertex 22.375 7.38157 0
      vertex 28.1502 7.61541 0
    endloop
  endfacet
  facet normal 0 0 -1
    outer loop
      vertex 21.8498 7.61541 0
      vertex 28.1502 7.61541 0
      vertex 22.375 7.38157 0
    endloop
  endfacet
  facet normal 0 0 -1
    outer loop
      vertex 28.1502 7.61541 0
      vertex 21.8498 7.61541 0
      vertex 28.7125 7.73493 0
    endloop
  endfacet
  facet normal 0 0 -1
    outer loop
      vertex 21.2875 7.73493 0
      vertex 28.7125 7.73493 0
      vertex 21.8498 7.61541 0
    endloop
  endfacet
  facet normal 0 0 -1
    outer loop
      vertex 28.7125 7.73493 0
      vertex 21.2875 7.73493 0
      vertex 43 9 0
    endloop
  endfacet
  facet normal 0 0 -1
    outer loop
      vertex 20.7125 7.73493 0
      vertex 43 9 0
      vertex 21.2875 7.73493 0
    endloop
  endfacet
  facet normal 0 0 -1
    outer loop
      vertex 16.75 5 0
      vertex 18.3101 5.57176 0
      vertex 18.25 5 0
    endloop
  endfacet
  facet normal 0 0 -1
    outer loop
      vertex 16.6899 5.57176 0
      vertex 18.3101 5.57176 0
      vertex 16.75 5 0
    endloop
  endfacet
  facet normal 0 0 -1
    outer loop
      vertex 18.3101 5.57176 0
      vertex 16.6899 5.57176 0
      vertex 18.4877 6.11853 0
    endloop
  endfacet
  facet normal 0 0 -1
    outer loop
      vertex 16.5122 6.11853 0
      vertex 18.4877 6.11853 0
      vertex 16.6899 5.57176 0
    endloop
  endfacet
  facet normal 0 0 -1
    outer loop
      vertex 18.4877 6.11853 0
      vertex 16.5122 6.11853 0
      vertex 18.7752 6.61641 0
    endloop
  endfacet
  facet normal 0 0 -1
    outer loop
      vertex 16.2248 6.61641 0
      vertex 18.7752 6.61641 0
      vertex 16.5122 6.11853 0
    endloop
  endfacet
  facet normal 0 0 -1
    outer loop
      vertex 18.7752 6.61641 0
      vertex 16.2248 6.61641 0
      vertex 19.1599 7.04365 0
    endloop
  endfacet
  facet normal 0 0 -1
    outer loop
      vertex 15.8401 7.04365 0
      vertex 19.1599 7.04365 0
      vertex 16.2248 6.61641 0
    endloop
  endfacet
  facet normal 0 0 -1
    outer loop
      vertex 19.1599 7.04365 0
      vertex 15.8401 7.04365 0
      vertex 19.625 7.38157 0
    endloop
  endfacet
  facet normal 0 0 -1
    outer loop
      vertex 15.375 7.38157 0
      vertex 19.625 7.38157 0
      vertex 15.8401 7.04365 0
    endloop
  endfacet
  facet normal 0 0 -1
    outer loop
      vertex 19.625 7.38157 0
      vertex 15.375 7.38157 0
      vertex 20.1502 7.61541 0
    endloop
  endfacet
  facet normal 0 0 -1
    outer loop
      vertex 14.8498 7.61541 0
      vertex 20.1502 7.61541 0
      vertex 15.375 7.38157 0
    endloop
  endfacet
  facet normal 0 0 -1
    outer loop
      vertex 20.1502 7.61541 0
      vertex 14.8498 7.61541 0
      vertex 20.7125 7.73493 0
    endloop
  endfacet
  facet normal 0 0 -1
    outer loop
      vertex 14.2875 7.73493 0
      vertex 20.7125 7.73493 0
      vertex 14.8498 7.61541 0
    endloop
  endfacet
  facet normal 0 0 -1
    outer loop
      vertex 0 9 0
      vertex 20.7125 7.73493 0
      vertex 14.2875 7.73493 0
    endloop
  endfacet
  facet normal 0 0 -1
    outer loop
      vertex 0 9 0
      vertex 14.2875 7.73493 0
      vertex 13.7125 7.73493 0
    endloop
  endfacet
  facet normal 0 0 -1
    outer loop
      vertex 8.75 5 0
      vertex 11.3101 5.57176 0
      vertex 11.25 5 0
    endloop
  endfacet
  facet normal 0 0 -1
    outer loop
      vertex 8.68991 5.57176 0
      vertex 11.3101 5.57176 0
      vertex 8.75 5 0
    endloop
  endfacet
  facet normal 0 0 -1
    outer loop
      vertex 11.3101 5.57176 0
      vertex 8.68991 5.57176 0
      vertex 11.4877 6.11853 0
    endloop
  endfacet
  facet normal 0 0 -1
    outer loop
      vertex 8.51225 6.11853 0
      vertex 11.4877 6.11853 0
      vertex 8.68991 5.57176 0
    endloop
  endfacet
  facet normal 0 0 -1
    outer loop
      vertex 11.4877 6.11853 0
      vertex 8.51225 6.11853 0
      vertex 11.7752 6.61641 0
    endloop
  endfacet
  facet normal 0 0 -1
    outer loop
      vertex 8.2248 6.61641 0
      vertex 11.7752 6.61641 0
      vertex 8.51225 6.11853 0
    endloop
  endfacet
  facet normal 0 0 -1
    outer loop
      vertex 11.7752 6.61641 0
      vertex 8.2248 6.61641 0
      vertex 12.1599 7.04365 0
    endloop
  endfacet
  facet normal 0 0 -1
    outer loop
      vertex 7.84011 7.04365 0
      vertex 12.1599 7.04365 0
      vertex 8.2248 6.61641 0
    endloop
  endfacet
  facet normal 0 0 -1
    outer loop
      vertex 12.1599 7.04365 0
      vertex 7.84011 7.04365 0
      vertex 12.625 7.38157 0
    endloop
  endfacet
  facet normal 0 0 -1
    outer loop
      vertex 7.375 7.38157 0
      vertex 12.625 7.38157 0
      vertex 7.84011 7.04365 0
    endloop
  endfacet
  facet normal 0 0 -1
    outer loop
      vertex 12.625 7.38157 0
      vertex 7.375 7.38157 0
      vertex 13.1502 7.61541 0
    endloop
  endfacet
  facet normal 0 0 -1
    outer loop
      vertex 6.8498 7.61541 0
      vertex 13.1502 7.61541 0
      vertex 7.375 7.38157 0
    endloop
  endfacet
  facet normal 0 0 -1
    outer loop
      vertex 13.1502 7.61541 0
      vertex 6.8498 7.61541 0
      vertex 13.7125 7.73493 0
    endloop
  endfacet
  facet normal 0 0 -1
    outer loop
      vertex 6.28745 7.73493 0
      vertex 13.7125 7.73493 0
      vertex 6.8498 7.61541 0
    endloop
  endfacet
  facet normal 0 0 -1
    outer loop
      vertex 0 9 0
      vertex 13.7125 7.73493 0
      vertex 6.28745 7.73493 0
    endloop
  endfacet
  facet normal 0 0 -1
    outer loop
      vertex 0 9 0
      vertex 6.28745 7.73493 0
      vertex 5.71255 7.73493 0
    endloop
  endfacet
  facet normal 0 0 -1
    outer loop
      vertex 0 9 0
      vertex 3.25 5 0
      vertex 0 0 0
    endloop
  endfacet
  facet normal 0 0 -1
    outer loop
      vertex 3.25 5 0
      vertex 0 9 0
      vertex 3.31009 5.57176 0
    endloop
  endfacet
  facet normal 0 0 -1
    outer loop
      vertex 20.7125 7.73493 0
      vertex 0 9 0
      vertex 43 9 0
    endloop
  endfacet
  facet normal 0 0 -1
    outer loop
      vertex 5.1502 7.61541 0
      vertex 0 9 0
      vertex 5.71255 7.73493 0
    endloop
  endfacet
  facet normal 0 0 -1
    outer loop
      vertex 4.625 7.38157 0
      vertex 0 9 0
      vertex 5.1502 7.61541 0
    endloop
  endfacet
  facet normal 0 0 -1
    outer loop
      vertex 4.15989 7.04365 0
      vertex 0 9 0
      vertex 4.625 7.38157 0
    endloop
  endfacet
  facet normal 0 0 -1
    outer loop
      vertex 3.7752 6.61641 0
      vertex 0 9 0
      vertex 4.15989 7.04365 0
    endloop
  endfacet
  facet normal 0 0 -1
    outer loop
      vertex 3.48775 6.11853 0
      vertex 0 9 0
      vertex 3.7752 6.61641 0
    endloop
  endfacet
  facet normal 0 0 -1
    outer loop
      vertex 3.31009 5.57176 0
      vertex 0 9 0
      vertex 3.48775 6.11853 0
    endloop
  endfacet
  facet normal 0 -1 0
    outer loop
      vertex 0 0 0
      vertex 43 0 1
      vertex 0 0 1
    endloop
  endfacet
  facet normal 0 -1 -0
    outer loop
      vertex 43 0 1
      vertex 0 0 0
      vertex 43 0 0
    endloop
  endfacet
  facet normal 0 1 -0
    outer loop
      vertex 43 9 0
      vertex 0 9 1
      vertex 43 9 1
    endloop
  endfacet
  facet normal 0 1 0
    outer loop
      vertex 0 9 1
      vertex 43 9 0
      vertex 0 9 0
    endloop
  endfacet
  facet normal -0.866025 -0.5 0
    outer loop
      vertex 8.51225 6.11853 0
      vertex 8.2248 6.61641 1
      vertex 8.2248 6.61641 0
    endloop
  endfacet
  facet normal -0.866025 -0.5 0
    outer loop
      vertex 8.2248 6.61641 1
      vertex 8.51225 6.11853 0
      vertex 8.51225 6.11853 1
    endloop
  endfacet
  facet normal -0.994522 -0.10453 0
    outer loop
      vertex 8.75 5 0
      vertex 8.68991 5.57176 1
      vertex 8.68991 5.57176 0
    endloop
  endfacet
  facet normal -0.994522 -0.10453 0
    outer loop
      vertex 8.68991 5.57176 1
      vertex 8.75 5 0
      vertex 8.75 5 1
    endloop
  endfacet
  facet normal 0.951057 0.309016 0
    outer loop
      vertex 3.48775 3.88147 1
      vertex 3.31009 4.42824 0
      vertex 3.31009 4.42824 1
    endloop
  endfacet
  facet normal 0.951057 0.309016 0
    outer loop
      vertex 3.31009 4.42824 0
      vertex 3.48775 3.88147 1
      vertex 3.48775 3.88147 0
    endloop
  endfacet
  facet normal 0.994522 0.104528 0
    outer loop
      vertex 3.31009 4.42824 1
      vertex 3.25 5 0
      vertex 3.25 5 1
    endloop
  endfacet
  facet normal 0.994522 0.104528 0
    outer loop
      vertex 3.25 5 0
      vertex 3.31009 4.42824 1
      vertex 3.31009 4.42824 0
    endloop
  endfacet
  facet normal -0.743145 -0.669131 0
    outer loop
      vertex 8.2248 6.61641 0
      vertex 7.84011 7.04365 1
      vertex 7.84011 7.04365 0
    endloop
  endfacet
  facet normal -0.743145 -0.669131 0
    outer loop
      vertex 7.84011 7.04365 1
      vertex 8.2248 6.61641 0
      vertex 8.2248 6.61641 1
    endloop
  endfacet
  facet normal 0 -1 0
    outer loop
      vertex 5.71255 7.73493 0
      vertex 6.28745 7.73493 1
      vertex 5.71255 7.73493 1
    endloop
  endfacet
  facet normal 0 -1 -0
    outer loop
      vertex 6.28745 7.73493 1
      vertex 5.71255 7.73493 0
      vertex 6.28745 7.73493 0
    endloop
  endfacet
  facet normal -0.207912 -0.978148 0
    outer loop
      vertex 6.28745 7.73493 0
      vertex 6.8498 7.61541 1
      vertex 6.28745 7.73493 1
    endloop
  endfacet
  facet normal -0.207912 -0.978148 -0
    outer loop
      vertex 6.8498 7.61541 1
      vertex 6.28745 7.73493 0
      vertex 6.8498 7.61541 0
    endloop
  endfacet
  facet normal 0.587784 -0.809018 0
    outer loop
      vertex 4.15989 7.04365 0
      vertex 4.625 7.38157 1
      vertex 4.15989 7.04365 1
    endloop
  endfacet
  facet normal 0.587784 -0.809018 0
    outer loop
      vertex 4.625 7.38157 1
      vertex 4.15989 7.04365 0
      vertex 4.625 7.38157 0
    endloop
  endfacet
  facet normal 0.994522 -0.104528 0
    outer loop
      vertex 3.25 5 1
      vertex 3.31009 5.57176 0
      vertex 3.31009 5.57176 1
    endloop
  endfacet
  facet normal 0.994522 -0.104528 0
    outer loop
      vertex 3.31009 5.57176 0
      vertex 3.25 5 1
      vertex 3.25 5 0
    endloop
  endfacet
  facet normal -0.406737 0.913545 0
    outer loop
      vertex 7.375 2.61843 0
      vertex 6.8498 2.38459 1
      vertex 7.375 2.61843 1
    endloop
  endfacet
  facet normal -0.406737 0.913545 0
    outer loop
      vertex 6.8498 2.38459 1
      vertex 7.375 2.61843 0
      vertex 6.8498 2.38459 0
    endloop
  endfacet
  facet normal -0.951057 -0.309016 0
    outer loop
      vertex 8.68991 5.57176 0
      vertex 8.51225 6.11853 1
      vertex 8.51225 6.11853 0
    endloop
  endfacet
  facet normal -0.951057 -0.309016 0
    outer loop
      vertex 8.51225 6.11853 1
      vertex 8.68991 5.57176 0
      vertex 8.68991 5.57176 1
    endloop
  endfacet
  facet normal -0.587785 -0.809017 0
    outer loop
      vertex 7.375 7.38157 0
      vertex 7.84011 7.04365 1
      vertex 7.375 7.38157 1
    endloop
  endfacet
  facet normal -0.587785 -0.809017 -0
    outer loop
      vertex 7.84011 7.04365 1
      vertex 7.375 7.38157 0
      vertex 7.84011 7.04365 0
    endloop
  endfacet
  facet normal 0.207912 -0.978148 0
    outer loop
      vertex 5.1502 7.61541 0
      vertex 5.71255 7.73493 1
      vertex 5.1502 7.61541 1
    endloop
  endfacet
  facet normal 0.207912 -0.978148 0
    outer loop
      vertex 5.71255 7.73493 1
      vertex 5.1502 7.61541 0
      vertex 5.71255 7.73493 0
    endloop
  endfacet
  facet normal -0.406737 -0.913545 0
    outer loop
      vertex 6.8498 7.61541 0
      vertex 7.375 7.38157 1
      vertex 6.8498 7.61541 1
    endloop
  endfacet
  facet normal -0.406737 -0.913545 -0
    outer loop
      vertex 7.375 7.38157 1
      vertex 6.8498 7.61541 0
      vertex 7.375 7.38157 0
    endloop
  endfacet
  facet normal 0.951057 -0.309016 0
    outer loop
      vertex 3.31009 5.57176 1
      vertex 3.48775 6.11853 0
      vertex 3.48775 6.11853 1
    endloop
  endfacet
  facet normal 0.951057 -0.309016 0
    outer loop
      vertex 3.48775 6.11853 0
      vertex 3.31009 5.57176 1
      vertex 3.31009 5.57176 0
    endloop
  endfacet
  facet normal 0.743145 -0.669131 0
    outer loop
      vertex 3.7752 6.61641 1
      vertex 4.15989 7.04365 0
      vertex 4.15989 7.04365 1
    endloop
  endfacet
  facet normal 0.743145 -0.669131 0
    outer loop
      vertex 4.15989 7.04365 0
      vertex 3.7752 6.61641 1
      vertex 3.7752 6.61641 0
    endloop
  endfacet
  facet normal 0.406738 -0.913545 0
    outer loop
      vertex 4.625 7.38157 0
      vertex 5.1502 7.61541 1
      vertex 4.625 7.38157 1
    endloop
  endfacet
  facet normal 0.406738 -0.913545 0
    outer loop
      vertex 5.1502 7.61541 1
      vertex 4.625 7.38157 0
      vertex 5.1502 7.61541 0
    endloop
  endfacet
  facet normal 0.866025 -0.5 0
    outer loop
      vertex 3.48775 6.11853 1
      vertex 3.7752 6.61641 0
      vertex 3.7752 6.61641 1
    endloop
  endfacet
  facet normal 0.866025 -0.5 0
    outer loop
      vertex 3.7752 6.61641 0
      vertex 3.48775 6.11853 1
      vertex 3.48775 6.11853 0
    endloop
  endfacet
  facet normal -0.951057 0.309016 0
    outer loop
      vertex 8.51225 3.88147 0
      vertex 8.68991 4.42824 1
      vertex 8.68991 4.42824 0
    endloop
  endfacet
  facet normal -0.951057 0.309016 0
    outer loop
      vertex 8.68991 4.42824 1
      vertex 8.51225 3.88147 0
      vertex 8.51225 3.88147 1
    endloop
  endfacet
  facet normal -0.743145 0.669131 0
    outer loop
      vertex 7.84011 2.95635 0
      vertex 8.2248 3.38359 1
      vertex 8.2248 3.38359 0
    endloop
  endfacet
  facet normal -0.743145 0.669131 0
    outer loop
      vertex 8.2248 3.38359 1
      vertex 7.84011 2.95635 0
      vertex 7.84011 2.95635 1
    endloop
  endfacet
  facet normal -0.994522 0.10453 0
    outer loop
      vertex 8.68991 4.42824 0
      vertex 8.75 5 1
      vertex 8.75 5 0
    endloop
  endfacet
  facet normal -0.994522 0.10453 0
    outer loop
      vertex 8.75 5 1
      vertex 8.68991 4.42824 0
      vertex 8.68991 4.42824 1
    endloop
  endfacet
  facet normal -0.587785 0.809017 0
    outer loop
      vertex 7.84011 2.95635 0
      vertex 7.375 2.61843 1
      vertex 7.84011 2.95635 1
    endloop
  endfacet
  facet normal -0.587785 0.809017 0
    outer loop
      vertex 7.375 2.61843 1
      vertex 7.84011 2.95635 0
      vertex 7.375 2.61843 0
    endloop
  endfacet
  facet normal 0 1 -0
    outer loop
      vertex 6.28745 2.26506 0
      vertex 5.71255 2.26506 1
      vertex 6.28745 2.26506 1
    endloop
  endfacet
  facet normal 0 1 0
    outer loop
      vertex 5.71255 2.26506 1
      vertex 6.28745 2.26506 0
      vertex 5.71255 2.26506 0
    endloop
  endfacet
  facet normal -0.207912 0.978148 0
    outer loop
      vertex 6.8498 2.38459 0
      vertex 6.28745 2.26506 1
      vertex 6.8498 2.38459 1
    endloop
  endfacet
  facet normal -0.207912 0.978148 0
    outer loop
      vertex 6.28745 2.26506 1
      vertex 6.8498 2.38459 0
      vertex 6.28745 2.26506 0
    endloop
  endfacet
  facet normal 0.743145 0.669131 0
    outer loop
      vertex 4.15989 2.95635 1
      vertex 3.7752 3.38359 0
      vertex 3.7752 3.38359 1
    endloop
  endfacet
  facet normal 0.743145 0.669131 0
    outer loop
      vertex 3.7752 3.38359 0
      vertex 4.15989 2.95635 1
      vertex 4.15989 2.95635 0
    endloop
  endfacet
  facet normal 0.866025 0.5 0
    outer loop
      vertex 3.7752 3.38359 1
      vertex 3.48775 3.88147 0
      vertex 3.48775 3.88147 1
    endloop
  endfacet
  facet normal 0.866025 0.5 0
    outer loop
      vertex 3.48775 3.88147 0
      vertex 3.7752 3.38359 1
      vertex 3.7752 3.38359 0
    endloop
  endfacet
  facet normal 0.587785 0.809017 -0
    outer loop
      vertex 4.625 2.61843 0
      vertex 4.15989 2.95635 1
      vertex 4.625 2.61843 1
    endloop
  endfacet
  facet normal 0.587785 0.809017 0
    outer loop
      vertex 4.15989 2.95635 1
      vertex 4.625 2.61843 0
      vertex 4.15989 2.95635 0
    endloop
  endfacet
  facet normal -0.866025 0.5 0
    outer loop
      vertex 8.2248 3.38359 0
      vertex 8.51225 3.88147 1
      vertex 8.51225 3.88147 0
    endloop
  endfacet
  facet normal -0.866025 0.5 0
    outer loop
      vertex 8.51225 3.88147 1
      vertex 8.2248 3.38359 0
      vertex 8.2248 3.38359 1
    endloop
  endfacet
  facet normal 0.406737 0.913545 -0
    outer loop
      vertex 5.1502 2.38459 0
      vertex 4.625 2.61843 1
      vertex 5.1502 2.38459 1
    endloop
  endfacet
  facet normal 0.406737 0.913545 0
    outer loop
      vertex 4.625 2.61843 1
      vertex 5.1502 2.38459 0
      vertex 4.625 2.61843 0
    endloop
  endfacet
  facet normal 0.207912 0.978148 -0
    outer loop
      vertex 5.71255 2.26506 0
      vertex 5.1502 2.38459 1
      vertex 5.71255 2.26506 1
    endloop
  endfacet
  facet normal 0.207912 0.978148 0
    outer loop
      vertex 5.1502 2.38459 1
      vertex 5.71255 2.26506 0
      vertex 5.1502 2.38459 0
    endloop
  endfacet
  facet normal -0.994522 -0.10453 0
    outer loop
      vertex 16.75 5 0
      vertex 16.6899 5.57176 1
      vertex 16.6899 5.57176 0
    endloop
  endfacet
  facet normal -0.994522 -0.10453 0
    outer loop
      vertex 16.6899 5.57176 1
      vertex 16.75 5 0
      vertex 16.75 5 1
    endloop
  endfacet
  facet normal 0.207912 -0.978148 0
    outer loop
      vertex 13.1502 7.61541 0
      vertex 13.7125 7.73493 1
      vertex 13.1502 7.61541 1
    endloop
  endfacet
  facet normal 0.207912 -0.978148 0
    outer loop
      vertex 13.7125 7.73493 1
      vertex 13.1502 7.61541 0
      vertex 13.7125 7.73493 0
    endloop
  endfacet
  facet normal -0.207912 0.978148 0
    outer loop
      vertex 14.8498 2.38459 0
      vertex 14.2875 2.26506 1
      vertex 14.8498 2.38459 1
    endloop
  endfacet
  facet normal -0.207912 0.978148 0
    outer loop
      vertex 14.2875 2.26506 1
      vertex 14.8498 2.38459 0
      vertex 14.2875 2.26506 0
    endloop
  endfacet
  facet normal -0.587785 -0.809017 0
    outer loop
      vertex 15.375 7.38157 0
      vertex 15.8401 7.04365 1
      vertex 15.375 7.38157 1
    endloop
  endfacet
  facet normal -0.587785 -0.809017 -0
    outer loop
      vertex 15.8401 7.04365 1
      vertex 15.375 7.38157 0
      vertex 15.8401 7.04365 0
    endloop
  endfacet
  facet normal 0.866025 -0.5 0
    outer loop
      vertex 11.4877 6.11853 1
      vertex 11.7752 6.61641 0
      vertex 11.7752 6.61641 1
    endloop
  endfacet
  facet normal 0.866025 -0.5 0
    outer loop
      vertex 11.7752 6.61641 0
      vertex 11.4877 6.11853 1
      vertex 11.4877 6.11853 0
    endloop
  endfacet
  facet normal 0.587784 -0.809018 0
    outer loop
      vertex 12.1599 7.04365 0
      vertex 12.625 7.38157 1
      vertex 12.1599 7.04365 1
    endloop
  endfacet
  facet normal 0.587784 -0.809018 0
    outer loop
      vertex 12.625 7.38157 1
      vertex 12.1599 7.04365 0
      vertex 12.625 7.38157 0
    endloop
  endfacet
  facet normal -0.866026 0.499999 0
    outer loop
      vertex 16.2248 3.38359 0
      vertex 16.5122 3.88147 1
      vertex 16.5122 3.88147 0
    endloop
  endfacet
  facet normal -0.866026 0.499999 0
    outer loop
      vertex 16.5122 3.88147 1
      vertex 16.2248 3.38359 0
      vertex 16.2248 3.38359 1
    endloop
  endfacet
  facet normal -0.866026 -0.499999 0
    outer loop
      vertex 16.5122 6.11853 0
      vertex 16.2248 6.61641 1
      vertex 16.2248 6.61641 0
    endloop
  endfacet
  facet normal -0.866026 -0.499999 0
    outer loop
      vertex 16.2248 6.61641 1
      vertex 16.5122 6.11853 0
      vertex 16.5122 6.11853 1
    endloop
  endfacet
  facet normal -0.951056 -0.309017 0
    outer loop
      vertex 16.6899 5.57176 0
      vertex 16.5122 6.11853 1
      vertex 16.5122 6.11853 0
    endloop
  endfacet
  facet normal -0.951056 -0.309017 0
    outer loop
      vertex 16.5122 6.11853 1
      vertex 16.6899 5.57176 0
      vertex 16.6899 5.57176 1
    endloop
  endfacet
  facet normal -0.743145 -0.669131 0
    outer loop
      vertex 16.2248 6.61641 0
      vertex 15.8401 7.04365 1
      vertex 15.8401 7.04365 0
    endloop
  endfacet
  facet normal -0.743145 -0.669131 0
    outer loop
      vertex 15.8401 7.04365 1
      vertex 16.2248 6.61641 0
      vertex 16.2248 6.61641 1
    endloop
  endfacet
  facet normal -0.207912 -0.978148 0
    outer loop
      vertex 14.2875 7.73493 0
      vertex 14.8498 7.61541 1
      vertex 14.2875 7.73493 1
    endloop
  endfacet
  facet normal -0.207912 -0.978148 -0
    outer loop
      vertex 14.8498 7.61541 1
      vertex 14.2875 7.73493 0
      vertex 14.8498 7.61541 0
    endloop
  endfacet
  facet normal 0 -1 0
    outer loop
      vertex 13.7125 7.73493 0
      vertex 14.2875 7.73493 1
      vertex 13.7125 7.73493 1
    endloop
  endfacet
  facet normal 0 -1 -0
    outer loop
      vertex 14.2875 7.73493 1
      vertex 13.7125 7.73493 0
      vertex 14.2875 7.73493 0
    endloop
  endfacet
  facet normal -0.406737 -0.913545 0
    outer loop
      vertex 14.8498 7.61541 0
      vertex 15.375 7.38157 1
      vertex 14.8498 7.61541 1
    endloop
  endfacet
  facet normal -0.406737 -0.913545 -0
    outer loop
      vertex 15.375 7.38157 1
      vertex 14.8498 7.61541 0
      vertex 15.375 7.38157 0
    endloop
  endfacet
  facet normal 0.951057 -0.309016 0
    outer loop
      vertex 11.3101 5.57176 1
      vertex 11.4877 6.11853 0
      vertex 11.4877 6.11853 1
    endloop
  endfacet
  facet normal 0.951057 -0.309016 0
    outer loop
      vertex 11.4877 6.11853 0
      vertex 11.3101 5.57176 1
      vertex 11.3101 5.57176 0
    endloop
  endfacet
  facet normal 0.994522 -0.104528 0
    outer loop
      vertex 11.25 5 1
      vertex 11.3101 5.57176 0
      vertex 11.3101 5.57176 1
    endloop
  endfacet
  facet normal 0.994522 -0.104528 0
    outer loop
      vertex 11.3101 5.57176 0
      vertex 11.25 5 1
      vertex 11.25 5 0
    endloop
  endfacet
  facet normal 0.994522 0.104528 0
    outer loop
      vertex 11.3101 4.42824 1
      vertex 11.25 5 0
      vertex 11.25 5 1
    endloop
  endfacet
  facet normal 0.994522 0.104528 0
    outer loop
      vertex 11.25 5 0
      vertex 11.3101 4.42824 1
      vertex 11.3101 4.42824 0
    endloop
  endfacet
  facet normal 0.743145 -0.669131 0
    outer loop
      vertex 11.7752 6.61641 1
      vertex 12.1599 7.04365 0
      vertex 12.1599 7.04365 1
    endloop
  endfacet
  facet normal 0.743145 -0.669131 0
    outer loop
      vertex 12.1599 7.04365 0
      vertex 11.7752 6.61641 1
      vertex 11.7752 6.61641 0
    endloop
  endfacet
  facet normal 0.406738 -0.913545 0
    outer loop
      vertex 12.625 7.38157 0
      vertex 13.1502 7.61541 1
      vertex 12.625 7.38157 1
    endloop
  endfacet
  facet normal 0.406738 -0.913545 0
    outer loop
      vertex 13.1502 7.61541 1
      vertex 12.625 7.38157 0
      vertex 13.1502 7.61541 0
    endloop
  endfacet
  facet normal 0.951057 0.309016 0
    outer loop
      vertex 11.4877 3.88147 1
      vertex 11.3101 4.42824 0
      vertex 11.3101 4.42824 1
    endloop
  endfacet
  facet normal 0.951057 0.309016 0
    outer loop
      vertex 11.3101 4.42824 0
      vertex 11.4877 3.88147 1
      vertex 11.4877 3.88147 0
    endloop
  endfacet
  facet normal -0.951056 0.309017 0
    outer loop
      vertex 16.5122 3.88147 0
      vertex 16.6899 4.42824 1
      vertex 16.6899 4.42824 0
    endloop
  endfacet
  facet normal -0.951056 0.309017 0
    outer loop
      vertex 16.6899 4.42824 1
      vertex 16.5122 3.88147 0
      vertex 16.5122 3.88147 1
    endloop
  endfacet
  facet normal 0.743145 0.669131 0
    outer loop
      vertex 12.1599 2.95635 1
      vertex 11.7752 3.38359 0
      vertex 11.7752 3.38359 1
    endloop
  endfacet
  facet normal 0.743145 0.669131 0
    outer loop
      vertex 11.7752 3.38359 0
      vertex 12.1599 2.95635 1
      vertex 12.1599 2.95635 0
    endloop
  endfacet
  facet normal -0.406737 0.913545 0
    outer loop
      vertex 15.375 2.61843 0
      vertex 14.8498 2.38459 1
      vertex 15.375 2.61843 1
    endloop
  endfacet
  facet normal -0.406737 0.913545 0
    outer loop
      vertex 14.8498 2.38459 1
      vertex 15.375 2.61843 0
      vertex 14.8498 2.38459 0
    endloop
  endfacet
  facet normal -0.743145 0.669131 0
    outer loop
      vertex 15.8401 2.95635 0
      vertex 16.2248 3.38359 1
      vertex 16.2248 3.38359 0
    endloop
  endfacet
  facet normal -0.743145 0.669131 0
    outer loop
      vertex 16.2248 3.38359 1
      vertex 15.8401 2.95635 0
      vertex 15.8401 2.95635 1
    endloop
  endfacet
  facet normal -0.994522 0.10453 0
    outer loop
      vertex 16.6899 4.42824 0
      vertex 16.75 5 1
      vertex 16.75 5 0
    endloop
  endfacet
  facet normal -0.994522 0.10453 0
    outer loop
      vertex 16.75 5 1
      vertex 16.6899 4.42824 0
      vertex 16.6899 4.42824 1
    endloop
  endfacet
  facet normal 0.207912 0.978148 -0
    outer loop
      vertex 13.7125 2.26506 0
      vertex 13.1502 2.38459 1
      vertex 13.7125 2.26506 1
    endloop
  endfacet
  facet normal 0.207912 0.978148 0
    outer loop
      vertex 13.1502 2.38459 1
      vertex 13.7125 2.26506 0
      vertex 13.1502 2.38459 0
    endloop
  endfacet
  facet normal 0.587785 0.809017 -0
    outer loop
      vertex 12.625 2.61843 0
      vertex 12.1599 2.95635 1
      vertex 12.625 2.61843 1
    endloop
  endfacet
  facet normal 0.587785 0.809017 0
    outer loop
      vertex 12.1599 2.95635 1
      vertex 12.625 2.61843 0
      vertex 12.1599 2.95635 0
    endloop
  endfacet
  facet normal 0.866025 0.5 0
    outer loop
      vertex 11.7752 3.38359 1
      vertex 11.4877 3.88147 0
      vertex 11.4877 3.88147 1
    endloop
  endfacet
  facet normal 0.866025 0.5 0
    outer loop
      vertex 11.4877 3.88147 0
      vertex 11.7752 3.38359 1
      vertex 11.7752 3.38359 0
    endloop
  endfacet
  facet normal -0.587785 0.809017 0
    outer loop
      vertex 15.8401 2.95635 0
      vertex 15.375 2.61843 1
      vertex 15.8401 2.95635 1
    endloop
  endfacet
  facet normal -0.587785 0.809017 0
    outer loop
      vertex 15.375 2.61843 1
      vertex 15.8401 2.95635 0
      vertex 15.375 2.61843 0
    endloop
  endfacet
  facet normal 0.406737 0.913545 -0
    outer loop
      vertex 13.1502 2.38459 0
      vertex 12.625 2.61843 1
      vertex 13.1502 2.38459 1
    endloop
  endfacet
  facet normal 0.406737 0.913545 0
    outer loop
      vertex 12.625 2.61843 1
      vertex 13.1502 2.38459 0
      vertex 12.625 2.61843 0
    endloop
  endfacet
  facet normal 0 1 -0
    outer loop
      vertex 14.2875 2.26506 0
      vertex 13.7125 2.26506 1
      vertex 14.2875 2.26506 1
    endloop
  endfacet
  facet normal 0 1 0
    outer loop
      vertex 13.7125 2.26506 1
      vertex 14.2875 2.26506 0
      vertex 13.7125 2.26506 0
    endloop
  endfacet
  facet normal -0.994522 -0.10453 0
    outer loop
      vertex 23.75 5 0
      vertex 23.6899 5.57176 1
      vertex 23.6899 5.57176 0
    endloop
  endfacet
  facet normal -0.994522 -0.10453 0
    outer loop
      vertex 23.6899 5.57176 1
      vertex 23.75 5 0
      vertex 23.75 5 1
    endloop
  endfacet
  facet normal 0.207912 -0.978148 0
    outer loop
      vertex 20.1502 7.61541 0
      vertex 20.7125 7.73493 1
      vertex 20.1502 7.61541 1
    endloop
  endfacet
  facet normal 0.207912 -0.978148 0
    outer loop
      vertex 20.7125 7.73493 1
      vertex 20.1502 7.61541 0
      vertex 20.7125 7.73493 0
    endloop
  endfacet
  facet normal -0.207912 0.978148 0
    outer loop
      vertex 21.8498 2.38459 0
      vertex 21.2875 2.26506 1
      vertex 21.8498 2.38459 1
    endloop
  endfacet
  facet normal -0.207912 0.978148 0
    outer loop
      vertex 21.2875 2.26506 1
      vertex 21.8498 2.38459 0
      vertex 21.2875 2.26506 0
    endloop
  endfacet
  facet normal -0.587785 -0.809017 0
    outer loop
      vertex 22.375 7.38157 0
      vertex 22.8401 7.04365 1
      vertex 22.375 7.38157 1
    endloop
  endfacet
  facet normal -0.587785 -0.809017 -0
    outer loop
      vertex 22.8401 7.04365 1
      vertex 22.375 7.38157 0
      vertex 22.8401 7.04365 0
    endloop
  endfacet
  facet normal 0.866024 -0.500002 0
    outer loop
      vertex 18.4877 6.11853 1
      vertex 18.7752 6.61641 0
      vertex 18.7752 6.61641 1
    endloop
  endfacet
  facet normal 0.866024 -0.500002 0
    outer loop
      vertex 18.7752 6.61641 0
      vertex 18.4877 6.11853 1
      vertex 18.4877 6.11853 0
    endloop
  endfacet
  facet normal 0.587783 -0.809018 0
    outer loop
      vertex 19.1599 7.04365 0
      vertex 19.625 7.38157 1
      vertex 19.1599 7.04365 1
    endloop
  endfacet
  facet normal 0.587783 -0.809018 0
    outer loop
      vertex 19.625 7.38157 1
      vertex 19.1599 7.04365 0
      vertex 19.625 7.38157 0
    endloop
  endfacet
  facet normal -0.866026 0.499999 0
    outer loop
      vertex 23.2248 3.38359 0
      vertex 23.5122 3.88147 1
      vertex 23.5122 3.88147 0
    endloop
  endfacet
  facet normal -0.866026 0.499999 0
    outer loop
      vertex 23.5122 3.88147 1
      vertex 23.2248 3.38359 0
      vertex 23.2248 3.38359 1
    endloop
  endfacet
  facet normal -0.866026 -0.499999 0
    outer loop
      vertex 23.5122 6.11853 0
      vertex 23.2248 6.61641 1
      vertex 23.2248 6.61641 0
    endloop
  endfacet
  facet normal -0.866026 -0.499999 0
    outer loop
      vertex 23.2248 6.61641 1
      vertex 23.5122 6.11853 0
      vertex 23.5122 6.11853 1
    endloop
  endfacet
  facet normal -0.951056 -0.309017 0
    outer loop
      vertex 23.6899 5.57176 0
      vertex 23.5122 6.11853 1
      vertex 23.5122 6.11853 0
    endloop
  endfacet
  facet normal -0.951056 -0.309017 0
    outer loop
      vertex 23.5122 6.11853 1
      vertex 23.6899 5.57176 0
      vertex 23.6899 5.57176 1
    endloop
  endfacet
  facet normal -0.743145 -0.669131 0
    outer loop
      vertex 23.2248 6.61641 0
      vertex 22.8401 7.04365 1
      vertex 22.8401 7.04365 0
    endloop
  endfacet
  facet normal -0.743145 -0.669131 0
    outer loop
      vertex 22.8401 7.04365 1
      vertex 23.2248 6.61641 0
      vertex 23.2248 6.61641 1
    endloop
  endfacet
  facet normal -0.207912 -0.978148 0
    outer loop
      vertex 21.2875 7.73493 0
      vertex 21.8498 7.61541 1
      vertex 21.2875 7.73493 1
    endloop
  endfacet
  facet normal -0.207912 -0.978148 -0
    outer loop
      vertex 21.8498 7.61541 1
      vertex 21.2875 7.73493 0
      vertex 21.8498 7.61541 0
    endloop
  endfacet
  facet normal 0 -1 0
    outer loop
      vertex 20.7125 7.73493 0
      vertex 21.2875 7.73493 1
      vertex 20.7125 7.73493 1
    endloop
  endfacet
  facet normal 0 -1 -0
    outer loop
      vertex 21.2875 7.73493 1
      vertex 20.7125 7.73493 0
      vertex 21.2875 7.73493 0
    endloop
  endfacet
  facet normal -0.406737 -0.913545 0
    outer loop
      vertex 21.8498 7.61541 0
      vertex 22.375 7.38157 1
      vertex 21.8498 7.61541 1
    endloop
  endfacet
  facet normal -0.406737 -0.913545 -0
    outer loop
      vertex 22.375 7.38157 1
      vertex 21.8498 7.61541 0
      vertex 22.375 7.38157 0
    endloop
  endfacet
  facet normal 0.951056 -0.309017 0
    outer loop
      vertex 18.3101 5.57176 1
      vertex 18.4877 6.11853 0
      vertex 18.4877 6.11853 1
    endloop
  endfacet
  facet normal 0.951056 -0.309017 0
    outer loop
      vertex 18.4877 6.11853 0
      vertex 18.3101 5.57176 1
      vertex 18.3101 5.57176 0
    endloop
  endfacet
  facet normal 0.994522 -0.104527 0
    outer loop
      vertex 18.25 5 1
      vertex 18.3101 5.57176 0
      vertex 18.3101 5.57176 1
    endloop
  endfacet
  facet normal 0.994522 -0.104527 0
    outer loop
      vertex 18.3101 5.57176 0
      vertex 18.25 5 1
      vertex 18.25 5 0
    endloop
  endfacet
  facet normal 0.994522 0.104526 0
    outer loop
      vertex 18.3101 4.42824 1
      vertex 18.25 5 0
      vertex 18.25 5 1
    endloop
  endfacet
  facet normal 0.994522 0.104526 0
    outer loop
      vertex 18.25 5 0
      vertex 18.3101 4.42824 1
      vertex 18.3101 4.42824 0
    endloop
  endfacet
  facet normal 0.743146 -0.669129 0
    outer loop
      vertex 18.7752 6.61641 1
      vertex 19.1599 7.04365 0
      vertex 19.1599 7.04365 1
    endloop
  endfacet
  facet normal 0.743146 -0.669129 0
    outer loop
      vertex 19.1599 7.04365 0
      vertex 18.7752 6.61641 1
      vertex 18.7752 6.61641 0
    endloop
  endfacet
  facet normal 0.406737 -0.913545 0
    outer loop
      vertex 19.625 7.38157 0
      vertex 20.1502 7.61541 1
      vertex 19.625 7.38157 1
    endloop
  endfacet
  facet normal 0.406737 -0.913545 0
    outer loop
      vertex 20.1502 7.61541 1
      vertex 19.625 7.38157 0
      vertex 20.1502 7.61541 0
    endloop
  endfacet
  facet normal -0.994522 0.10453 0
    outer loop
      vertex 23.6899 4.42824 0
      vertex 23.75 5 1
      vertex 23.75 5 0
    endloop
  endfacet
  facet normal -0.994522 0.10453 0
    outer loop
      vertex 23.75 5 1
      vertex 23.6899 4.42824 0
      vertex 23.6899 4.42824 1
    endloop
  endfacet
  facet normal 0.951056 0.309017 0
    outer loop
      vertex 18.4877 3.88147 1
      vertex 18.3101 4.42824 0
      vertex 18.3101 4.42824 1
    endloop
  endfacet
  facet normal 0.951056 0.309017 0
    outer loop
      vertex 18.3101 4.42824 0
      vertex 18.4877 3.88147 1
      vertex 18.4877 3.88147 0
    endloop
  endfacet
  facet normal -0.951056 0.309017 0
    outer loop
      vertex 23.5122 3.88147 0
      vertex 23.6899 4.42824 1
      vertex 23.6899 4.42824 0
    endloop
  endfacet
  facet normal -0.951056 0.309017 0
    outer loop
      vertex 23.6899 4.42824 1
      vertex 23.5122 3.88147 0
      vertex 23.5122 3.88147 1
    endloop
  endfacet
  facet normal 0.743146 0.669129 0
    outer loop
      vertex 19.1599 2.95635 1
      vertex 18.7752 3.38359 0
      vertex 18.7752 3.38359 1
    endloop
  endfacet
  facet normal 0.743146 0.669129 0
    outer loop
      vertex 18.7752 3.38359 0
      vertex 19.1599 2.95635 1
      vertex 19.1599 2.95635 0
    endloop
  endfacet
  facet normal -0.743145 0.669131 0
    outer loop
      vertex 22.8401 2.95635 0
      vertex 23.2248 3.38359 1
      vertex 23.2248 3.38359 0
    endloop
  endfacet
  facet normal -0.743145 0.669131 0
    outer loop
      vertex 23.2248 3.38359 1
      vertex 22.8401 2.95635 0
      vertex 22.8401 2.95635 1
    endloop
  endfacet
  facet normal 0.207912 0.978148 -0
    outer loop
      vertex 20.7125 2.26506 0
      vertex 20.1502 2.38459 1
      vertex 20.7125 2.26506 1
    endloop
  endfacet
  facet normal 0.207912 0.978148 0
    outer loop
      vertex 20.1502 2.38459 1
      vertex 20.7125 2.26506 0
      vertex 20.1502 2.38459 0
    endloop
  endfacet
  facet normal 0.587783 0.809018 -0
    outer loop
      vertex 19.625 2.61843 0
      vertex 19.1599 2.95635 1
      vertex 19.625 2.61843 1
    endloop
  endfacet
  facet normal 0.587783 0.809018 0
    outer loop
      vertex 19.1599 2.95635 1
      vertex 19.625 2.61843 0
      vertex 19.1599 2.95635 0
    endloop
  endfacet
  facet normal 0.866024 0.500002 0
    outer loop
      vertex 18.7752 3.38359 1
      vertex 18.4877 3.88147 0
      vertex 18.4877 3.88147 1
    endloop
  endfacet
  facet normal 0.866024 0.500002 0
    outer loop
      vertex 18.4877 3.88147 0
      vertex 18.7752 3.38359 1
      vertex 18.7752 3.38359 0
    endloop
  endfacet
  facet normal -0.587785 0.809017 0
    outer loop
      vertex 22.8401 2.95635 0
      vertex 22.375 2.61843 1
      vertex 22.8401 2.95635 1
    endloop
  endfacet
  facet normal -0.587785 0.809017 0
    outer loop
      vertex 22.375 2.61843 1
      vertex 22.8401 2.95635 0
      vertex 22.375 2.61843 0
    endloop
  endfacet
  facet normal -0.406737 0.913545 0
    outer loop
      vertex 22.375 2.61843 0
      vertex 21.8498 2.38459 1
      vertex 22.375 2.61843 1
    endloop
  endfacet
  facet normal -0.406737 0.913545 0
    outer loop
      vertex 21.8498 2.38459 1
      vertex 22.375 2.61843 0
      vertex 21.8498 2.38459 0
    endloop
  endfacet
  facet normal 0.406737 0.913545 -0
    outer loop
      vertex 20.1502 2.38459 0
      vertex 19.625 2.61843 1
      vertex 20.1502 2.38459 1
    endloop
  endfacet
  facet normal 0.406737 0.913545 0
    outer loop
      vertex 19.625 2.61843 1
      vertex 20.1502 2.38459 0
      vertex 19.625 2.61843 0
    endloop
  endfacet
  facet normal 0 1 -0
    outer loop
      vertex 21.2875 2.26506 0
      vertex 20.7125 2.26506 1
      vertex 21.2875 2.26506 1
    endloop
  endfacet
  facet normal 0 1 0
    outer loop
      vertex 20.7125 2.26506 1
      vertex 21.2875 2.26506 0
      vertex 20.7125 2.26506 0
    endloop
  endfacet
  facet normal -0.994522 -0.10453 0
    outer loop
      vertex 31.75 5 0
      vertex 31.6899 5.57176 1
      vertex 31.6899 5.57176 0
    endloop
  endfacet
  facet normal -0.994522 -0.10453 0
    outer loop
      vertex 31.6899 5.57176 1
      vertex 31.75 5 0
      vertex 31.75 5 1
    endloop
  endfacet
  facet normal 0.207912 -0.978148 0
    outer loop
      vertex 28.1502 7.61541 0
      vertex 28.7125 7.73493 1
      vertex 28.1502 7.61541 1
    endloop
  endfacet
  facet normal 0.207912 -0.978148 0
    outer loop
      vertex 28.7125 7.73493 1
      vertex 28.1502 7.61541 0
      vertex 28.7125 7.73493 0
    endloop
  endfacet
  facet normal -0.207912 0.978148 0
    outer loop
      vertex 29.8498 2.38459 0
      vertex 29.2875 2.26506 1
      vertex 29.8498 2.38459 1
    endloop
  endfacet
  facet normal -0.207912 0.978148 0
    outer loop
      vertex 29.2875 2.26506 1
      vertex 29.8498 2.38459 0
      vertex 29.2875 2.26506 0
    endloop
  endfacet
  facet normal -0.587785 -0.809017 0
    outer loop
      vertex 30.375 7.38157 0
      vertex 30.8401 7.04365 1
      vertex 30.375 7.38157 1
    endloop
  endfacet
  facet normal -0.587785 -0.809017 -0
    outer loop
      vertex 30.8401 7.04365 1
      vertex 30.375 7.38157 0
      vertex 30.8401 7.04365 0
    endloop
  endfacet
  facet normal 0.866024 -0.500002 0
    outer loop
      vertex 26.4877 6.11853 1
      vertex 26.7752 6.61641 0
      vertex 26.7752 6.61641 1
    endloop
  endfacet
  facet normal 0.866024 -0.500002 0
    outer loop
      vertex 26.7752 6.61641 0
      vertex 26.4877 6.11853 1
      vertex 26.4877 6.11853 0
    endloop
  endfacet
  facet normal 0.587783 -0.809018 0
    outer loop
      vertex 27.1599 7.04365 0
      vertex 27.625 7.38157 1
      vertex 27.1599 7.04365 1
    endloop
  endfacet
  facet normal 0.587783 -0.809018 0
    outer loop
      vertex 27.625 7.38157 1
      vertex 27.1599 7.04365 0
      vertex 27.625 7.38157 0
    endloop
  endfacet
  facet normal -0.866026 0.499999 0
    outer loop
      vertex 31.2248 3.38359 0
      vertex 31.5122 3.88147 1
      vertex 31.5122 3.88147 0
    endloop
  endfacet
  facet normal -0.866026 0.499999 0
    outer loop
      vertex 31.5122 3.88147 1
      vertex 31.2248 3.38359 0
      vertex 31.2248 3.38359 1
    endloop
  endfacet
  facet normal -0.866026 -0.499999 0
    outer loop
      vertex 31.5122 6.11853 0
      vertex 31.2248 6.61641 1
      vertex 31.2248 6.61641 0
    endloop
  endfacet
  facet normal -0.866026 -0.499999 0
    outer loop
      vertex 31.2248 6.61641 1
      vertex 31.5122 6.11853 0
      vertex 31.5122 6.11853 1
    endloop
  endfacet
  facet normal -0.951056 -0.309017 0
    outer loop
      vertex 31.6899 5.57176 0
      vertex 31.5122 6.11853 1
      vertex 31.5122 6.11853 0
    endloop
  endfacet
  facet normal -0.951056 -0.309017 0
    outer loop
      vertex 31.5122 6.11853 1
      vertex 31.6899 5.57176 0
      vertex 31.6899 5.57176 1
    endloop
  endfacet
  facet normal -0.743145 -0.669131 0
    outer loop
      vertex 31.2248 6.61641 0
      vertex 30.8401 7.04365 1
      vertex 30.8401 7.04365 0
    endloop
  endfacet
  facet normal -0.743145 -0.669131 0
    outer loop
      vertex 30.8401 7.04365 1
      vertex 31.2248 6.61641 0
      vertex 31.2248 6.61641 1
    endloop
  endfacet
  facet normal -0.207912 -0.978148 0
    outer loop
      vertex 29.2875 7.73493 0
      vertex 29.8498 7.61541 1
      vertex 29.2875 7.73493 1
    endloop
  endfacet
  facet normal -0.207912 -0.978148 -0
    outer loop
      vertex 29.8498 7.61541 1
      vertex 29.2875 7.73493 0
      vertex 29.8498 7.61541 0
    endloop
  endfacet
  facet normal 0 -1 0
    outer loop
      vertex 28.7125 7.73493 0
      vertex 29.2875 7.73493 1
      vertex 28.7125 7.73493 1
    endloop
  endfacet
  facet normal 0 -1 -0
    outer loop
      vertex 29.2875 7.73493 1
      vertex 28.7125 7.73493 0
      vertex 29.2875 7.73493 0
    endloop
  endfacet
  facet normal -0.406737 -0.913545 0
    outer loop
      vertex 29.8498 7.61541 0
      vertex 30.375 7.38157 1
      vertex 29.8498 7.61541 1
    endloop
  endfacet
  facet normal -0.406737 -0.913545 -0
    outer loop
      vertex 30.375 7.38157 1
      vertex 29.8498 7.61541 0
      vertex 30.375 7.38157 0
    endloop
  endfacet
  facet normal 0.951056 -0.309017 0
    outer loop
      vertex 26.3101 5.57176 1
      vertex 26.4877 6.11853 0
      vertex 26.4877 6.11853 1
    endloop
  endfacet
  facet normal 0.951056 -0.309017 0
    outer loop
      vertex 26.4877 6.11853 0
      vertex 26.3101 5.57176 1
      vertex 26.3101 5.57176 0
    endloop
  endfacet
  facet normal 0.994522 -0.104527 0
    outer loop
      vertex 26.25 5 1
      vertex 26.3101 5.57176 0
      vertex 26.3101 5.57176 1
    endloop
  endfacet
  facet normal 0.994522 -0.104527 0
    outer loop
      vertex 26.3101 5.57176 0
      vertex 26.25 5 1
      vertex 26.25 5 0
    endloop
  endfacet
  facet normal 0.994522 0.104526 0
    outer loop
      vertex 26.3101 4.42824 1
      vertex 26.25 5 0
      vertex 26.25 5 1
    endloop
  endfacet
  facet normal 0.994522 0.104526 0
    outer loop
      vertex 26.25 5 0
      vertex 26.3101 4.42824 1
      vertex 26.3101 4.42824 0
    endloop
  endfacet
  facet normal 0.743146 -0.669129 0
    outer loop
      vertex 26.7752 6.61641 1
      vertex 27.1599 7.04365 0
      vertex 27.1599 7.04365 1
    endloop
  endfacet
  facet normal 0.743146 -0.669129 0
    outer loop
      vertex 27.1599 7.04365 0
      vertex 26.7752 6.61641 1
      vertex 26.7752 6.61641 0
    endloop
  endfacet
  facet normal 0.406737 -0.913545 0
    outer loop
      vertex 27.625 7.38157 0
      vertex 28.1502 7.61541 1
      vertex 27.625 7.38157 1
    endloop
  endfacet
  facet normal 0.406737 -0.913545 0
    outer loop
      vertex 28.1502 7.61541 1
      vertex 27.625 7.38157 0
      vertex 28.1502 7.61541 0
    endloop
  endfacet
  facet normal -0.994522 0.10453 0
    outer loop
      vertex 31.6899 4.42824 0
      vertex 31.75 5 1
      vertex 31.75 5 0
    endloop
  endfacet
  facet normal -0.994522 0.10453 0
    outer loop
      vertex 31.75 5 1
      vertex 31.6899 4.42824 0
      vertex 31.6899 4.42824 1
    endloop
  endfacet
  facet normal -0.951056 0.309017 0
    outer loop
      vertex 31.5122 3.88147 0
      vertex 31.6899 4.42824 1
      vertex 31.6899 4.42824 0
    endloop
  endfacet
  facet normal -0.951056 0.309017 0
    outer loop
      vertex 31.6899 4.42824 1
      vertex 31.5122 3.88147 0
      vertex 31.5122 3.88147 1
    endloop
  endfacet
  facet normal 0.743146 0.669129 0
    outer loop
      vertex 27.1599 2.95635 1
      vertex 26.7752 3.38359 0
      vertex 26.7752 3.38359 1
    endloop
  endfacet
  facet normal 0.743146 0.669129 0
    outer loop
      vertex 26.7752 3.38359 0
      vertex 27.1599 2.95635 1
      vertex 27.1599 2.95635 0
    endloop
  endfacet
  facet normal -0.406737 0.913545 0
    outer loop
      vertex 30.375 2.61843 0
      vertex 29.8498 2.38459 1
      vertex 30.375 2.61843 1
    endloop
  endfacet
  facet normal -0.406737 0.913545 0
    outer loop
      vertex 29.8498 2.38459 1
      vertex 30.375 2.61843 0
      vertex 29.8498 2.38459 0
    endloop
  endfacet
  facet normal -0.743145 0.669131 0
    outer loop
      vertex 30.8401 2.95635 0
      vertex 31.2248 3.38359 1
      vertex 31.2248 3.38359 0
    endloop
  endfacet
  facet normal -0.743145 0.669131 0
    outer loop
      vertex 31.2248 3.38359 1
      vertex 30.8401 2.95635 0
      vertex 30.8401 2.95635 1
    endloop
  endfacet
  facet normal 0 1 -0
    outer loop
      vertex 29.2875 2.26506 0
      vertex 28.7125 2.26506 1
      vertex 29.2875 2.26506 1
    endloop
  endfacet
  facet normal 0 1 0
    outer loop
      vertex 28.7125 2.26506 1
      vertex 29.2875 2.26506 0
      vertex 28.7125 2.26506 0
    endloop
  endfacet
  facet normal 0.207912 0.978148 -0
    outer loop
      vertex 28.7125 2.26506 0
      vertex 28.1502 2.38459 1
      vertex 28.7125 2.26506 1
    endloop
  endfacet
  facet normal 0.207912 0.978148 0
    outer loop
      vertex 28.1502 2.38459 1
      vertex 28.7125 2.26506 0
      vertex 28.1502 2.38459 0
    endloop
  endfacet
  facet normal 0.587783 0.809018 -0
    outer loop
      vertex 27.625 2.61843 0
      vertex 27.1599 2.95635 1
      vertex 27.625 2.61843 1
    endloop
  endfacet
  facet normal 0.587783 0.809018 0
    outer loop
      vertex 27.1599 2.95635 1
      vertex 27.625 2.61843 0
      vertex 27.1599 2.95635 0
    endloop
  endfacet
  facet normal 0.866024 0.500002 0
    outer loop
      vertex 26.7752 3.38359 1
      vertex 26.4877 3.88147 0
      vertex 26.4877 3.88147 1
    endloop
  endfacet
  facet normal 0.866024 0.500002 0
    outer loop
      vertex 26.4877 3.88147 0
      vertex 26.7752 3.38359 1
      vertex 26.7752 3.38359 0
    endloop
  endfacet
  facet normal 0.951056 0.309017 0
    outer loop
      vertex 26.4877 3.88147 1
      vertex 26.3101 4.42824 0
      vertex 26.3101 4.42824 1
    endloop
  endfacet
  facet normal 0.951056 0.309017 0
    outer loop
      vertex 26.3101 4.42824 0
      vertex 26.4877 3.88147 1
      vertex 26.4877 3.88147 0
    endloop
  endfacet
  facet normal -0.587785 0.809017 0
    outer loop
      vertex 30.8401 2.95635 0
      vertex 30.375 2.61843 1
      vertex 30.8401 2.95635 1
    endloop
  endfacet
  facet normal -0.587785 0.809017 0
    outer loop
      vertex 30.375 2.61843 1
      vertex 30.8401 2.95635 0
      vertex 30.375 2.61843 0
    endloop
  endfacet
  facet normal 0.406737 0.913545 -0
    outer loop
      vertex 28.1502 2.38459 0
      vertex 27.625 2.61843 1
      vertex 28.1502 2.38459 1
    endloop
  endfacet
  facet normal 0.406737 0.913545 0
    outer loop
      vertex 27.625 2.61843 1
      vertex 28.1502 2.38459 0
      vertex 27.625 2.61843 0
    endloop
  endfacet
  facet normal -0.994522 -0.10453 0
    outer loop
      vertex 40.75 6.5 0
      vertex 40.7118 6.86384 1
      vertex 40.7118 6.86384 0
    endloop
  endfacet
  facet normal -0.994522 -0.10453 0
    outer loop
      vertex 40.7118 6.86384 1
      vertex 40.75 6.5 0
      vertex 40.75 6.5 1
    endloop
  endfacet
  facet normal 0.207912 -0.978148 0
    outer loop
      vertex 38.4592 8.16435 0
      vertex 38.8171 8.24041 1
      vertex 38.4592 8.16435 1
    endloop
  endfacet
  facet normal 0.207912 -0.978148 0
    outer loop
      vertex 38.8171 8.24041 1
      vertex 38.4592 8.16435 0
      vertex 38.8171 8.24041 0
    endloop
  endfacet
  facet normal -0.20791 0.978148 0
    outer loop
      vertex 39.5408 4.83565 0
      vertex 39.1829 4.75959 1
      vertex 39.5408 4.83565 1
    endloop
  endfacet
  facet normal -0.20791 0.978148 0
    outer loop
      vertex 39.1829 4.75959 1
      vertex 39.5408 4.83565 0
      vertex 39.1829 4.75959 0
    endloop
  endfacet
  facet normal -0.587786 -0.809017 0
    outer loop
      vertex 39.875 8.01554 0
      vertex 40.171 7.8005 1
      vertex 39.875 8.01554 1
    endloop
  endfacet
  facet normal -0.587786 -0.809017 -0
    outer loop
      vertex 40.171 7.8005 1
      vertex 39.875 8.01554 0
      vertex 40.171 7.8005 0
    endloop
  endfacet
  facet normal 0.866024 -0.500002 0
    outer loop
      vertex 37.4013 7.21179 1
      vertex 37.5842 7.52862 0
      vertex 37.5842 7.52862 1
    endloop
  endfacet
  facet normal 0.866024 -0.500002 0
    outer loop
      vertex 37.5842 7.52862 0
      vertex 37.4013 7.21179 1
      vertex 37.4013 7.21179 0
    endloop
  endfacet
  facet normal 0.951058 -0.309014 0
    outer loop
      vertex 37.2882 6.86384 1
      vertex 37.4013 7.21179 0
      vertex 37.4013 7.21179 1
    endloop
  endfacet
  facet normal 0.951058 -0.309014 0
    outer loop
      vertex 37.4013 7.21179 0
      vertex 37.2882 6.86384 1
      vertex 37.2882 6.86384 0
    endloop
  endfacet
  facet normal 0.587786 -0.809017 0
    outer loop
      vertex 37.829 7.8005 0
      vertex 38.125 8.01554 1
      vertex 37.829 7.8005 1
    endloop
  endfacet
  facet normal 0.587786 -0.809017 0
    outer loop
      vertex 38.125 8.01554 1
      vertex 37.829 7.8005 0
      vertex 38.125 8.01554 0
    endloop
  endfacet
  facet normal -0.866024 -0.500002 0
    outer loop
      vertex 40.5987 7.21179 0
      vertex 40.4158 7.52862 1
      vertex 40.4158 7.52862 0
    endloop
  endfacet
  facet normal -0.866024 -0.500002 0
    outer loop
      vertex 40.4158 7.52862 1
      vertex 40.5987 7.21179 0
      vertex 40.5987 7.21179 1
    endloop
  endfacet
  facet normal -0.951058 -0.309014 0
    outer loop
      vertex 40.7118 6.86384 0
      vertex 40.5987 7.21179 1
      vertex 40.5987 7.21179 0
    endloop
  endfacet
  facet normal -0.951058 -0.309014 0
    outer loop
      vertex 40.5987 7.21179 1
      vertex 40.7118 6.86384 0
      vertex 40.7118 6.86384 1
    endloop
  endfacet
  facet normal -0.743146 -0.66913 0
    outer loop
      vertex 40.4158 7.52862 0
      vertex 40.171 7.8005 1
      vertex 40.171 7.8005 0
    endloop
  endfacet
  facet normal -0.743146 -0.66913 0
    outer loop
      vertex 40.171 7.8005 1
      vertex 40.4158 7.52862 0
      vertex 40.4158 7.52862 1
    endloop
  endfacet
  facet normal -0.20791 -0.978148 0
    outer loop
      vertex 39.1829 8.24041 0
      vertex 39.5408 8.16435 1
      vertex 39.1829 8.24041 1
    endloop
  endfacet
  facet normal -0.20791 -0.978148 -0
    outer loop
      vertex 39.5408 8.16435 1
      vertex 39.1829 8.24041 0
      vertex 39.5408 8.16435 0
    endloop
  endfacet
  facet normal 0 -1 0
    outer loop
      vertex 38.8171 8.24041 0
      vertex 39.1829 8.24041 1
      vertex 38.8171 8.24041 1
    endloop
  endfacet
  facet normal 0 -1 -0
    outer loop
      vertex 39.1829 8.24041 1
      vertex 38.8171 8.24041 0
      vertex 39.1829 8.24041 0
    endloop
  endfacet
  facet normal -0.406737 -0.913546 0
    outer loop
      vertex 39.5408 8.16435 0
      vertex 39.875 8.01554 1
      vertex 39.5408 8.16435 1
    endloop
  endfacet
  facet normal -0.406737 -0.913546 -0
    outer loop
      vertex 39.875 8.01554 1
      vertex 39.5408 8.16435 0
      vertex 39.875 8.01554 0
    endloop
  endfacet
  facet normal 0.994522 -0.10453 0
    outer loop
      vertex 37.25 6.5 1
      vertex 37.2882 6.86384 0
      vertex 37.2882 6.86384 1
    endloop
  endfacet
  facet normal 0.994522 -0.10453 0
    outer loop
      vertex 37.2882 6.86384 0
      vertex 37.25 6.5 1
      vertex 37.25 6.5 0
    endloop
  endfacet
  facet normal 0.743146 -0.66913 0
    outer loop
      vertex 37.5842 7.52862 1
      vertex 37.829 7.8005 0
      vertex 37.829 7.8005 1
    endloop
  endfacet
  facet normal 0.743146 -0.66913 0
    outer loop
      vertex 37.829 7.8005 0
      vertex 37.5842 7.52862 1
      vertex 37.5842 7.52862 0
    endloop
  endfacet
  facet normal 0.406737 -0.913546 0
    outer loop
      vertex 38.125 8.01554 0
      vertex 38.4592 8.16435 1
      vertex 38.125 8.01554 1
    endloop
  endfacet
  facet normal 0.406737 -0.913546 0
    outer loop
      vertex 38.4592 8.16435 1
      vertex 38.125 8.01554 0
      vertex 38.4592 8.16435 0
    endloop
  endfacet
  facet normal -0.994522 0.10453 0
    outer loop
      vertex 40.7118 6.13615 0
      vertex 40.75 6.5 1
      vertex 40.75 6.5 0
    endloop
  endfacet
  facet normal -0.994522 0.10453 0
    outer loop
      vertex 40.75 6.5 1
      vertex 40.7118 6.13615 0
      vertex 40.7118 6.13615 1
    endloop
  endfacet
  facet normal 0.951058 0.309014 0
    outer loop
      vertex 37.4013 5.78821 1
      vertex 37.2882 6.13615 0
      vertex 37.2882 6.13615 1
    endloop
  endfacet
  facet normal 0.951058 0.309014 0
    outer loop
      vertex 37.2882 6.13615 0
      vertex 37.4013 5.78821 1
      vertex 37.4013 5.78821 0
    endloop
  endfacet
  facet normal -0.406737 0.913546 0
    outer loop
      vertex 39.875 4.98446 0
      vertex 39.5408 4.83565 1
      vertex 39.875 4.98446 1
    endloop
  endfacet
  facet normal -0.406737 0.913546 0
    outer loop
      vertex 39.5408 4.83565 1
      vertex 39.875 4.98446 0
      vertex 39.5408 4.83565 0
    endloop
  endfacet
  facet normal -0.951058 0.309014 0
    outer loop
      vertex 40.5987 5.78821 0
      vertex 40.7118 6.13615 1
      vertex 40.7118 6.13615 0
    endloop
  endfacet
  facet normal -0.951058 0.309014 0
    outer loop
      vertex 40.7118 6.13615 1
      vertex 40.5987 5.78821 0
      vertex 40.5987 5.78821 1
    endloop
  endfacet
  facet normal 0.994522 0.10453 0
    outer loop
      vertex 37.2882 6.13615 1
      vertex 37.25 6.5 0
      vertex 37.25 6.5 1
    endloop
  endfacet
  facet normal 0.994522 0.10453 0
    outer loop
      vertex 37.25 6.5 0
      vertex 37.2882 6.13615 1
      vertex 37.2882 6.13615 0
    endloop
  endfacet
  facet normal -0.743146 0.66913 0
    outer loop
      vertex 40.171 5.1995 0
      vertex 40.4158 5.47138 1
      vertex 40.4158 5.47138 0
    endloop
  endfacet
  facet normal -0.743146 0.66913 0
    outer loop
      vertex 40.4158 5.47138 1
      vertex 40.171 5.1995 0
      vertex 40.171 5.1995 1
    endloop
  endfacet
  facet normal -0.587786 0.809017 0
    outer loop
      vertex 40.171 5.1995 0
      vertex 39.875 4.98446 1
      vertex 40.171 5.1995 1
    endloop
  endfacet
  facet normal -0.587786 0.809017 0
    outer loop
      vertex 39.875 4.98446 1
      vertex 40.171 5.1995 0
      vertex 39.875 4.98446 0
    endloop
  endfacet
  facet normal 0 1 -0
    outer loop
      vertex 39.1829 4.75959 0
      vertex 38.8171 4.75959 1
      vertex 39.1829 4.75959 1
    endloop
  endfacet
  facet normal 0 1 0
    outer loop
      vertex 38.8171 4.75959 1
      vertex 39.1829 4.75959 0
      vertex 38.8171 4.75959 0
    endloop
  endfacet
  facet normal 0.587786 0.809017 -0
    outer loop
      vertex 38.125 4.98446 0
      vertex 37.829 5.1995 1
      vertex 38.125 4.98446 1
    endloop
  endfacet
  facet normal 0.587786 0.809017 0
    outer loop
      vertex 37.829 5.1995 1
      vertex 38.125 4.98446 0
      vertex 37.829 5.1995 0
    endloop
  endfacet
  facet normal 0.743146 0.66913 0
    outer loop
      vertex 37.829 5.1995 1
      vertex 37.5842 5.47138 0
      vertex 37.5842 5.47138 1
    endloop
  endfacet
  facet normal 0.743146 0.66913 0
    outer loop
      vertex 37.5842 5.47138 0
      vertex 37.829 5.1995 1
      vertex 37.829 5.1995 0
    endloop
  endfacet
  facet normal 0.866024 0.500002 0
    outer loop
      vertex 37.5842 5.47138 1
      vertex 37.4013 5.78821 0
      vertex 37.4013 5.78821 1
    endloop
  endfacet
  facet normal 0.866024 0.500002 0
    outer loop
      vertex 37.4013 5.78821 0
      vertex 37.5842 5.47138 1
      vertex 37.5842 5.47138 0
    endloop
  endfacet
  facet normal -0.866024 0.500002 0
    outer loop
      vertex 40.4158 5.47138 0
      vertex 40.5987 5.78821 1
      vertex 40.5987 5.78821 0
    endloop
  endfacet
  facet normal -0.866024 0.500002 0
    outer loop
      vertex 40.5987 5.78821 1
      vertex 40.4158 5.47138 0
      vertex 40.4158 5.47138 1
    endloop
  endfacet
  facet normal 0.406737 0.913546 -0
    outer loop
      vertex 38.4592 4.83565 0
      vertex 38.125 4.98446 1
      vertex 38.4592 4.83565 1
    endloop
  endfacet
  facet normal 0.406737 0.913546 0
    outer loop
      vertex 38.125 4.98446 1
      vertex 38.4592 4.83565 0
      vertex 38.125 4.98446 0
    endloop
  endfacet
  facet normal 0.207912 0.978148 -0
    outer loop
      vertex 38.8171 4.75959 0
      vertex 38.4592 4.83565 1
      vertex 38.8171 4.75959 1
    endloop
  endfacet
  facet normal 0.207912 0.978148 0
    outer loop
      vertex 38.4592 4.83565 1
      vertex 38.8171 4.75959 0
      vertex 38.4592 4.83565 0
    endloop
  endfacet
endsolid OpenSCAD_Model
